<?xml version="1.0" encoding="utf-8" standalone="no"?>
<!DOCTYPE svg PUBLIC "-//W3C//DTD SVG 1.1//EN"
  "http://www.w3.org/Graphics/SVG/1.1/DTD/svg11.dtd">
<!-- Created with matplotlib (https://matplotlib.org/) -->
<svg height="261.75625pt" version="1.1" viewBox="0 0 406.823047 261.75625" width="406.823047pt" xmlns="http://www.w3.org/2000/svg" xmlns:xlink="http://www.w3.org/1999/xlink">
 <defs>
  <style type="text/css">
*{stroke-linecap:butt;stroke-linejoin:round;}
  </style>
 </defs>
 <g id="figure_1">
  <g id="patch_1">
   <path d="M 0 261.75625 
L 406.823047 261.75625 
L 406.823047 0 
L 0 0 
z
" style="fill:none;"/>
  </g>
  <g id="axes_1">
   <g id="patch_2">
    <path d="M 22.3 231.4 
L 406.823047 231.4 
L 406.823047 0 
L 22.3 0 
z
" style="fill:none;"/>
   </g>
   <g id="matplotlib.axis_1">
    <g id="xtick_1">
     <g id="line2d_1">
      <defs>
       <path d="M 0 0 
L 0 3.5 
" id="m2bdef2b5cb" style="stroke:#000000;stroke-width:0.8;"/>
      </defs>
      <g>
       <use style="stroke:#000000;stroke-width:0.8;" x="39.77832" xlink:href="#m2bdef2b5cb" y="231.4"/>
      </g>
     </g>
     <g id="text_1">
      <!-- 0 -->
      <defs>
       <path d="M 31.78125 66.40625 
Q 24.171875 66.40625 20.328125 58.90625 
Q 16.5 51.421875 16.5 36.375 
Q 16.5 21.390625 20.328125 13.890625 
Q 24.171875 6.390625 31.78125 6.390625 
Q 39.453125 6.390625 43.28125 13.890625 
Q 47.125 21.390625 47.125 36.375 
Q 47.125 51.421875 43.28125 58.90625 
Q 39.453125 66.40625 31.78125 66.40625 
z
M 31.78125 74.21875 
Q 44.046875 74.21875 50.515625 64.515625 
Q 56.984375 54.828125 56.984375 36.375 
Q 56.984375 17.96875 50.515625 8.265625 
Q 44.046875 -1.421875 31.78125 -1.421875 
Q 19.53125 -1.421875 13.0625 8.265625 
Q 6.59375 17.96875 6.59375 36.375 
Q 6.59375 54.828125 13.0625 64.515625 
Q 19.53125 74.21875 31.78125 74.21875 
z
" id="DejaVuSans-48"/>
      </defs>
      <g transform="translate(36.59707 245.998438)scale(0.1 -0.1)">
       <use xlink:href="#DejaVuSans-48"/>
      </g>
     </g>
    </g>
    <g id="xtick_2">
     <g id="line2d_2">
      <g>
       <use style="stroke:#000000;stroke-width:0.8;" x="389.344727" xlink:href="#m2bdef2b5cb" y="231.4"/>
      </g>
     </g>
     <g id="text_2">
      <!-- $T$ -->
      <defs>
       <path d="M 5.90625 72.90625 
L 67.578125 72.90625 
L 66.015625 64.59375 
L 39.984375 64.59375 
L 27.484375 0 
L 17.578125 0 
L 30.078125 64.59375 
L 4.296875 64.59375 
z
" id="DejaVuSans-Oblique-84"/>
      </defs>
      <g transform="translate(386.244727 245.998438)scale(0.1 -0.1)">
       <use transform="translate(0 0.09375)" xlink:href="#DejaVuSans-Oblique-84"/>
      </g>
     </g>
    </g>
    <g id="text_3">
     <!-- $t$ -->
     <defs>
      <path d="M 42.28125 54.6875 
L 40.921875 47.703125 
L 23 47.703125 
L 17.1875 18.015625 
Q 16.890625 16.359375 16.75 15.234375 
Q 16.609375 14.109375 16.609375 13.484375 
Q 16.609375 10.359375 18.484375 8.9375 
Q 20.359375 7.515625 24.515625 7.515625 
L 33.59375 7.515625 
L 32.078125 0 
L 23.484375 0 
Q 15.484375 0 11.546875 3.125 
Q 7.625 6.25 7.625 12.59375 
Q 7.625 13.71875 7.765625 15.0625 
Q 7.90625 16.40625 8.203125 18.015625 
L 14.015625 47.703125 
L 6.390625 47.703125 
L 7.8125 54.6875 
L 15.28125 54.6875 
L 18.3125 70.21875 
L 27.296875 70.21875 
L 24.3125 54.6875 
z
" id="DejaVuSans-Oblique-116"/>
     </defs>
     <g transform="translate(212.561523 259.676563)scale(0.1 -0.1)">
      <use transform="translate(0 0.78125)" xlink:href="#DejaVuSans-Oblique-116"/>
     </g>
    </g>
   </g>
   <g id="matplotlib.axis_2">
    <g id="ytick_1">
     <g id="line2d_3">
      <defs>
       <path d="M 0 0 
L -3.5 0 
" id="m9972f27efb" style="stroke:#000000;stroke-width:0.8;"/>
      </defs>
      <g>
       <use style="stroke:#000000;stroke-width:0.8;" x="22.3" xlink:href="#m9972f27efb" y="220.881818"/>
      </g>
     </g>
     <g id="text_4">
      <!-- $\gamma$ -->
      <defs>
       <path d="M 23.296875 46.09375 
L 28.71875 12.3125 
L 54 54.6875 
L 63.53125 54.6875 
L 30.8125 0 
L 26.765625 -20.796875 
L 17.78125 -20.796875 
L 21.828125 0 
L 15.4375 40.828125 
Q 14.453125 46.96875 9.8125 46.96875 
L 7.421875 46.96875 
L 8.890625 54.6875 
L 12.3125 54.6875 
Q 21.921875 54.6875 23.296875 46.09375 
z
" id="DejaVuSans-Oblique-947"/>
      </defs>
      <g transform="translate(9.3 224.670881)scale(0.1 -0.1)">
       <use transform="translate(0 0.3125)" xlink:href="#DejaVuSans-Oblique-947"/>
      </g>
     </g>
    </g>
    <g id="ytick_2">
     <g id="line2d_4">
      <g>
       <use style="stroke:#000000;stroke-width:0.8;" x="22.3" xlink:href="#m9972f27efb" y="17.688357"/>
      </g>
     </g>
     <g id="text_5">
      <!-- $K$ -->
      <defs>
       <path d="M 16.890625 72.90625 
L 26.8125 72.90625 
L 20.796875 42.1875 
L 59.078125 72.90625 
L 72.21875 72.90625 
L 28.90625 38.09375 
L 60.59375 0 
L 48.578125 0 
L 19.484375 35.5 
L 12.59375 0 
L 2.6875 0 
z
" id="DejaVuSans-Oblique-75"/>
      </defs>
      <g transform="translate(8.7 21.487576)scale(0.1 -0.1)">
       <use transform="translate(0 0.09375)" xlink:href="#DejaVuSans-Oblique-75"/>
      </g>
     </g>
    </g>
    <g id="text_6">
     <!-- $S_t$ -->
     <defs>
      <path d="M 60.296875 70.515625 
L 58.40625 60.890625 
Q 53.46875 63.53125 48.609375 64.875 
Q 43.75 66.21875 39.203125 66.21875 
Q 30.375 66.21875 25.140625 62.359375 
Q 19.921875 58.5 19.921875 52.09375 
Q 19.921875 48.578125 21.84375 46.703125 
Q 23.78125 44.828125 31.78125 42.671875 
L 37.703125 41.21875 
Q 47.703125 38.625 51.609375 34.640625 
Q 55.515625 30.671875 55.515625 23.484375 
Q 55.515625 12.453125 46.84375 5.515625 
Q 38.1875 -1.421875 24.03125 -1.421875 
Q 18.21875 -1.421875 12.359375 -0.265625 
Q 6.5 0.875 0.59375 3.21875 
L 2.59375 13.375 
Q 8.015625 10.015625 13.453125 8.296875 
Q 18.890625 6.59375 24.3125 6.59375 
Q 33.546875 6.59375 39.109375 10.6875 
Q 44.671875 14.796875 44.671875 21.390625 
Q 44.671875 25.78125 42.453125 28.046875 
Q 40.234375 30.328125 32.90625 32.171875 
L 27 33.6875 
Q 16.890625 36.328125 13.203125 39.765625 
Q 9.515625 43.21875 9.515625 49.421875 
Q 9.515625 60.296875 17.890625 67.25 
Q 26.265625 74.21875 39.703125 74.21875 
Q 44.921875 74.21875 50.046875 73.28125 
Q 55.171875 72.359375 60.296875 70.515625 
z
" id="DejaVuSans-Oblique-83"/>
     </defs>
     <g transform="translate(0 113.620313)scale(0.1 -0.1)">
      <use transform="translate(0 0.78125)" xlink:href="#DejaVuSans-Oblique-83"/>
      <use transform="translate(63.476562 -15.625)scale(0.7)" xlink:href="#DejaVuSans-Oblique-116"/>
     </g>
    </g>
   </g>
   <g id="line2d_5">
    <path clip-path="url(#pd95ba4480d)" d="M 39.77832 202.409685 
L 40.128237 198.534383 
L 40.828069 201.054865 
L 41.177986 203.489394 
L 41.527902 201.392378 
L 41.877818 206.694094 
L 42.227735 202.546205 
L 42.577651 204.250825 
L 42.927567 203.431671 
L 43.277484 203.940317 
L 43.6274 200.447935 
L 43.977316 205.188973 
L 44.677149 206.689714 
L 45.027065 203.969612 
L 45.376981 206.463104 
L 45.726898 206.79148 
L 46.076814 208.763964 
L 46.42673 208.591903 
L 46.776647 207.159727 
L 47.126563 209.650603 
L 47.826396 204.731717 
L 48.176312 203.484206 
L 48.526228 201.304268 
L 48.876145 202.82896 
L 49.226061 203.042221 
L 49.575977 205.153902 
L 49.925894 205.705287 
L 50.27581 204.393374 
L 50.625726 205.934027 
L 50.975643 206.785741 
L 52.025392 211.697098 
L 52.375308 211.652964 
L 52.725224 214.176537 
L 53.075141 213.558432 
L 53.425057 209.623956 
L 53.774973 207.821476 
L 54.12489 208.194839 
L 54.824722 211.853459 
L 55.174639 207.839223 
L 55.524555 207.647042 
L 55.874471 209.057651 
L 56.224387 208.539179 
L 56.574304 203.565218 
L 56.92422 203.210544 
L 57.274136 201.693763 
L 57.624053 200.91762 
L 57.973969 201.667575 
L 58.323885 204.26373 
L 58.673802 205.005541 
L 59.023718 205.419288 
L 59.373634 203.97575 
L 60.073467 199.688505 
L 60.423383 198.945675 
L 60.7733 196.797227 
L 61.123216 198.491201 
L 61.473132 195.479555 
L 61.823049 194.201284 
L 62.172965 194.826845 
L 62.522881 193.605465 
L 62.872798 193.708656 
L 63.222714 190.974428 
L 63.57263 187.321508 
L 63.922547 182.088585 
L 64.622379 188.641142 
L 64.972296 189.75439 
L 65.322212 189.303179 
L 65.672128 187.164685 
L 66.022045 186.345973 
L 66.371961 191.03393 
L 66.721877 191.67963 
L 67.071793 189.657314 
L 67.42171 189.041126 
L 67.771626 187.171422 
L 68.471459 188.019304 
L 68.821375 187.505166 
L 69.171291 186.463991 
L 69.871124 185.566389 
L 70.22104 187.073266 
L 70.570957 186.108469 
L 70.920873 185.74652 
L 71.620706 180.096439 
L 71.970622 179.583439 
L 72.320538 180.396541 
L 72.670455 181.832119 
L 73.020371 180.755979 
L 73.370287 180.498212 
L 73.720204 181.236598 
L 74.07012 181.058694 
L 74.420036 182.449506 
L 74.769953 180.724505 
L 75.119869 181.706952 
L 75.469785 178.735149 
L 75.819702 177.704611 
L 76.169618 176.222889 
L 76.519534 178.742076 
L 76.869451 178.266062 
L 77.219367 176.436391 
L 77.569283 178.620956 
L 77.919199 179.17632 
L 78.269116 179.024218 
L 78.619032 182.19724 
L 78.968948 181.377469 
L 79.318865 179.300894 
L 79.668781 181.259433 
L 80.018697 180.35554 
L 80.368614 183.382631 
L 80.71853 183.399298 
L 81.068446 187.136939 
L 81.418363 184.417134 
L 81.768279 183.376952 
L 82.118195 183.360368 
L 82.468112 185.115622 
L 82.818028 182.032847 
L 83.167944 177.302809 
L 83.517861 181.625339 
L 84.217693 174.692764 
L 84.56761 173.81545 
L 84.917526 176.585258 
L 85.267442 174.462576 
L 85.617359 174.816803 
L 85.967275 176.174136 
L 86.317191 179.013353 
L 86.667108 177.634638 
L 87.017024 175.680438 
L 87.36694 177.083618 
L 87.716857 175.774532 
L 88.066773 178.411381 
L 88.416689 176.436528 
L 88.766605 176.251124 
L 89.116522 176.618404 
L 89.466438 176.784577 
L 90.166271 172.792357 
L 90.516187 171.459143 
L 91.21602 170.796348 
L 91.565936 169.250138 
L 91.915852 168.621477 
L 92.265769 166.920586 
L 92.615685 167.583983 
L 92.965601 173.299235 
L 93.315518 170.755622 
L 93.665434 165.472802 
L 94.01535 164.344601 
L 94.715183 164.758087 
L 95.065099 164.966595 
L 95.415016 164.849606 
L 95.764932 167.448656 
L 96.114848 168.604644 
L 96.464765 170.901359 
L 96.814681 170.23447 
L 97.164597 170.86466 
L 97.514514 169.611577 
L 97.86443 169.95193 
L 98.214346 167.528807 
L 98.564263 166.944747 
L 98.914179 161.642324 
L 99.264095 166.092494 
L 99.614011 167.558556 
L 99.963928 165.334692 
L 100.313844 159.220174 
L 100.66376 159.739242 
L 101.013677 159.559118 
L 101.363593 160.024716 
L 101.713509 156.762237 
L 102.063426 157.374594 
L 102.413342 155.669481 
L 102.763258 156.360048 
L 103.113175 159.330968 
L 103.463091 158.505017 
L 103.813007 157.224594 
L 104.162924 154.048997 
L 104.51284 154.238044 
L 104.862756 155.642494 
L 105.212673 154.217232 
L 105.912505 152.814231 
L 106.262422 152.913787 
L 106.612338 150.050443 
L 106.962254 149.085881 
L 107.312171 144.422963 
L 107.662087 141.6658 
L 108.012003 139.997332 
L 108.36192 143.850034 
L 109.411669 139.193196 
L 109.761585 136.589748 
L 110.111501 137.483479 
L 110.461417 135.411787 
L 110.811334 136.696905 
L 111.16125 131.881713 
L 111.511166 135.034959 
L 112.210999 143.130306 
L 112.910832 147.820689 
L 113.260748 143.030599 
L 113.610664 143.74193 
L 113.960581 146.901498 
L 114.310497 144.139902 
L 114.660413 145.477523 
L 115.01033 148.379611 
L 115.710162 144.616402 
L 116.060079 145.588501 
L 116.409995 142.11744 
L 116.759911 141.729368 
L 117.109828 137.744658 
L 117.459744 136.451254 
L 117.80966 132.596588 
L 118.159577 132.25438 
L 118.509493 135.135169 
L 118.859409 129.114568 
L 119.209326 130.363762 
L 119.559242 130.769831 
L 119.909158 132.393155 
L 120.259075 132.809848 
L 120.958907 131.577681 
L 121.308823 129.895604 
L 121.65874 125.459574 
L 122.008656 125.675863 
L 122.708489 131.394484 
L 123.058405 132.933248 
L 123.408321 136.913387 
L 123.758238 134.838595 
L 124.108154 135.968886 
L 124.45807 136.645291 
L 124.807987 136.573274 
L 125.157903 139.875108 
L 125.507819 141.879279 
L 126.207652 138.601355 
L 126.557568 139.596382 
L 126.907485 135.138244 
L 127.257401 138.2227 
L 127.607317 138.980528 
L 127.957234 139.462136 
L 128.30715 146.125985 
L 128.657066 141.376425 
L 129.006983 140.415096 
L 129.356899 142.861006 
L 129.706815 137.828361 
L 130.406648 135.217276 
L 130.756564 136.61073 
L 131.106481 136.276938 
L 131.456397 139.891228 
L 131.806313 137.892258 
L 132.156229 138.721441 
L 132.506146 138.320714 
L 132.856062 135.33428 
L 133.905811 133.107496 
L 134.255727 134.808505 
L 134.605644 132.704806 
L 134.95556 128.880139 
L 135.655393 124.726325 
L 136.355225 128.818882 
L 136.705142 132.241491 
L 137.055058 129.172165 
L 137.404974 129.712956 
L 137.754891 126.231687 
L 138.104807 128.057087 
L 138.454723 129.04384 
L 138.80464 128.734977 
L 139.154556 126.416651 
L 139.504472 126.191772 
L 139.854389 125.60075 
L 140.204305 125.483465 
L 140.554221 124.974889 
L 140.904138 127.615429 
L 141.254054 127.341606 
L 141.60397 127.718497 
L 141.953887 127.779755 
L 142.303803 126.504932 
L 142.653719 128.08391 
L 143.003635 128.212473 
L 143.353552 128.858505 
L 143.703468 127.766904 
L 144.053384 125.780213 
L 144.403301 128.028049 
L 144.753217 126.525668 
L 145.103133 121.414256 
L 145.45305 124.923819 
L 146.152882 128.932537 
L 146.502799 129.533946 
L 146.852715 125.5094 
L 147.202631 125.399841 
L 147.552548 127.013828 
L 147.902464 125.42325 
L 148.25238 126.806328 
L 148.602297 123.993561 
L 148.952213 123.172358 
L 149.302129 119.706253 
L 149.652046 121.24363 
L 150.001962 113.755264 
L 150.701795 109.972705 
L 151.051711 110.020693 
L 151.751544 113.772894 
L 152.10146 114.028497 
L 152.451376 115.903064 
L 152.801293 115.133718 
L 153.151209 117.07772 
L 153.501125 115.480686 
L 153.851041 113.061392 
L 154.200958 114.713024 
L 154.550874 111.71268 
L 154.90079 112.218575 
L 155.250707 109.306198 
L 155.600623 108.152222 
L 155.950539 105.314835 
L 156.300456 107.688809 
L 156.650372 107.873502 
L 157.000288 104.225634 
L 157.350205 105.668803 
L 158.74987 126.404419 
L 159.099786 127.329087 
L 159.449703 124.139138 
L 159.799619 125.1394 
L 160.149535 124.274192 
L 160.499452 124.465098 
L 160.849368 124.367184 
L 161.549201 125.047095 
L 161.899117 123.846432 
L 162.249033 126.633358 
L 162.948866 121.775985 
L 163.298782 122.174649 
L 163.648699 120.131819 
L 164.348531 122.999576 
L 164.698447 122.541372 
L 165.048364 122.928085 
L 165.39828 123.944838 
L 166.098113 126.785939 
L 166.448029 124.422091 
L 166.797945 129.074141 
L 167.147862 128.140264 
L 167.497778 128.638211 
L 168.197611 125.460182 
L 168.547527 132.147276 
L 168.897443 130.651184 
L 169.24736 129.78664 
L 169.597276 129.656646 
L 169.947192 130.718262 
L 170.297109 128.568067 
L 170.647025 129.495073 
L 170.996941 124.954455 
L 171.346858 123.502146 
L 171.696774 118.206608 
L 172.04669 120.04847 
L 172.396607 124.254522 
L 173.096439 120.27682 
L 173.446356 120.113224 
L 173.796272 123.790006 
L 174.146188 124.804251 
L 174.496105 123.221153 
L 174.846021 123.592996 
L 175.195937 123.798577 
L 175.545853 124.149067 
L 175.89577 126.346453 
L 176.245686 127.566425 
L 176.595602 130.956493 
L 176.945519 126.581806 
L 177.295435 127.661415 
L 177.645351 126.422357 
L 177.995268 128.831005 
L 178.345184 126.82167 
L 178.6951 131.297594 
L 179.045017 128.98439 
L 179.394933 128.993455 
L 179.744849 123.779364 
L 180.094766 126.884085 
L 180.444682 126.621223 
L 180.794598 125.65027 
L 181.144515 122.568817 
L 181.494431 123.522673 
L 181.844347 123.234768 
L 182.194264 128.37395 
L 182.54418 130.314535 
L 182.894096 129.140366 
L 183.244013 126.377839 
L 183.593929 126.986468 
L 184.293762 117.522797 
L 184.643678 117.59374 
L 185.343511 127.660156 
L 185.693427 129.474352 
L 186.043343 126.683914 
L 186.393259 125.851671 
L 186.743176 130.866787 
L 187.093092 131.345405 
L 187.443008 127.347737 
L 187.792925 128.182384 
L 188.142841 129.928333 
L 188.492757 124.853148 
L 188.842674 124.64597 
L 189.19259 125.735881 
L 189.542506 124.806049 
L 189.892423 124.687163 
L 190.242339 125.655275 
L 190.942172 119.8334 
L 191.292088 117.701374 
L 191.642004 117.875564 
L 191.991921 114.992227 
L 192.341837 115.036453 
L 192.691753 113.816123 
L 193.391586 109.141545 
L 193.741502 104.663473 
L 194.091419 103.474429 
L 194.791251 110.311701 
L 195.141168 106.917539 
L 195.491084 107.654099 
L 195.841 106.626094 
L 196.190917 108.640936 
L 196.540833 106.102998 
L 196.890749 106.971522 
L 197.240665 103.305509 
L 197.590582 104.53816 
L 197.940498 101.705832 
L 198.290414 99.964555 
L 198.640331 101.66816 
L 198.990247 98.878899 
L 199.69008 102.974757 
L 200.039996 101.117943 
L 200.739829 103.966234 
L 201.089745 104.73497 
L 201.439661 107.117394 
L 201.789578 104.468874 
L 202.139494 102.892385 
L 202.839327 103.174316 
L 203.189243 101.987142 
L 203.539159 97.552888 
L 203.889076 95.321782 
L 204.238992 96.50072 
L 204.588908 94.499897 
L 204.938825 94.715477 
L 205.288741 95.129484 
L 205.638657 90.428871 
L 206.33849 92.497732 
L 207.038323 100.63241 
L 207.388239 99.441299 
L 207.738155 101.07762 
L 208.088071 99.728138 
L 208.437988 102.399375 
L 208.787904 104.211444 
L 209.13782 102.471977 
L 209.487737 98.790599 
L 209.837653 97.249144 
L 210.187569 94.208988 
L 210.537486 89.907674 
L 210.887402 87.247872 
L 211.237318 89.448983 
L 211.587235 89.631816 
L 211.937151 87.989479 
L 212.287067 88.940575 
L 212.636984 87.740275 
L 212.9869 91.578768 
L 213.336816 93.552705 
L 213.686733 92.164653 
L 214.036649 97.620481 
L 214.386565 100.276945 
L 214.736482 100.242604 
L 215.086398 104.401899 
L 215.436314 104.183382 
L 215.786231 106.073085 
L 216.486063 107.271303 
L 216.83598 106.728147 
L 217.185896 108.036168 
L 217.535812 107.738029 
L 217.885729 109.137139 
L 218.235645 107.693317 
L 218.585561 103.448228 
L 219.285394 102.388822 
L 219.63531 105.177334 
L 219.985226 103.392436 
L 220.685059 107.092434 
L 221.034975 105.64373 
L 221.384892 105.120432 
L 222.084724 98.678765 
L 222.434641 99.932723 
L 222.784557 99.537857 
L 223.134473 95.110196 
L 224.184222 87.475117 
L 224.534139 88.897378 
L 224.884055 87.238561 
L 225.583888 79.540988 
L 225.933804 81.47116 
L 226.28372 82.019145 
L 226.633637 80.987096 
L 226.983553 81.628174 
L 227.333469 82.525022 
L 227.683386 80.742666 
L 228.033302 81.544262 
L 228.383218 85.91374 
L 228.733135 84.935621 
L 229.083051 85.91217 
L 229.432967 87.650746 
L 229.782883 91.456162 
L 230.1328 88.863642 
L 230.832632 98.426419 
L 231.182549 99.029354 
L 231.882381 92.59572 
L 232.232298 95.375934 
L 232.582214 95.73697 
L 232.93213 99.390265 
L 233.282047 96.814713 
L 233.631963 100.382385 
L 233.981879 100.65756 
L 234.331796 98.029898 
L 234.681712 98.501023 
L 235.031628 94.789209 
L 235.381545 96.862175 
L 235.731461 95.871353 
L 236.081377 93.682109 
L 236.431294 93.949607 
L 236.78121 90.437036 
L 237.131126 88.999011 
L 237.481043 92.979393 
L 237.830959 83.073693 
L 238.180875 81.379909 
L 238.530792 81.033689 
L 238.880708 84.436834 
L 239.230624 84.154769 
L 239.580541 85.219839 
L 239.930457 83.538577 
L 240.280373 82.534821 
L 240.630289 77.837509 
L 240.980206 77.40354 
L 241.680038 75.03288 
L 242.379871 75.704011 
L 243.079704 70.841 
L 243.42962 72.337473 
L 243.779536 75.042648 
L 244.129453 75.132036 
L 244.479369 72.148513 
L 244.829285 72.13823 
L 245.179202 67.683423 
L 245.529118 69.547245 
L 245.879034 69.112982 
L 246.228951 75.330822 
L 246.578867 76.739576 
L 246.928783 77.432265 
L 247.2787 76.077587 
L 247.628616 71.721202 
L 247.978532 71.554531 
L 248.328449 67.832192 
L 248.678365 66.092553 
L 249.028281 63.5355 
L 249.378198 64.627348 
L 249.728114 61.065441 
L 250.07803 63.684323 
L 250.427947 62.359886 
L 250.777863 64.673374 
L 251.127779 65.895124 
L 251.477695 69.481296 
L 251.827612 70.695584 
L 252.177528 69.736771 
L 252.527444 69.829808 
L 252.877361 73.124638 
L 253.227277 69.363095 
L 253.577193 68.438479 
L 254.277026 63.778073 
L 254.626942 65.368851 
L 254.976859 70.167914 
L 255.326775 72.380637 
L 255.676691 69.233274 
L 256.026608 71.792795 
L 256.376524 69.669882 
L 256.72644 71.124589 
L 257.076357 70.060786 
L 257.426273 74.545762 
L 257.776189 71.547247 
L 258.126106 71.567349 
L 258.476022 69.269311 
L 258.825938 68.714104 
L 259.175855 66.633008 
L 259.525771 66.809406 
L 259.875687 64.863727 
L 260.57552 71.200923 
L 260.925436 69.304371 
L 261.275353 69.323267 
L 261.975185 70.187926 
L 262.325101 68.851365 
L 262.675018 70.258922 
L 263.024934 68.900896 
L 263.37485 71.115955 
L 263.724767 72.056225 
L 264.424599 66.744684 
L 264.774516 69.416708 
L 265.124432 67.234569 
L 265.474348 69.760683 
L 265.824265 67.843817 
L 266.174181 72.521213 
L 266.524097 75.235318 
L 266.874014 76.42766 
L 267.22393 76.764367 
L 267.573846 73.127632 
L 267.923763 70.785896 
L 268.623595 63.647418 
L 269.323428 64.868308 
L 269.673344 62.101875 
L 270.023261 61.92074 
L 270.373177 62.236049 
L 270.723093 65.511973 
L 271.07301 65.69984 
L 271.422926 72.615793 
L 271.772842 73.677549 
L 272.122759 76.047369 
L 272.472675 74.237712 
L 272.822591 75.354952 
L 273.172507 76.097905 
L 273.522424 72.651371 
L 273.87234 75.195285 
L 274.222256 74.324793 
L 274.572173 78.978052 
L 274.922089 78.675345 
L 275.272005 77.572785 
L 275.621922 75.346575 
L 275.971838 77.511727 
L 276.671671 75.761178 
L 277.021587 75.730185 
L 277.371503 75.276351 
L 278.071336 72.964542 
L 278.771169 78.28216 
L 279.471001 67.050923 
L 279.820918 70.46041 
L 280.170834 69.253128 
L 280.870667 65.635694 
L 281.220583 65.2037 
L 281.570499 67.450689 
L 281.920416 67.828893 
L 282.270332 68.980972 
L 282.620248 68.564805 
L 282.970165 69.158232 
L 283.320081 69.408946 
L 284.019913 63.605503 
L 284.36983 66.492459 
L 284.719746 67.567067 
L 285.069662 69.470417 
L 285.419579 66.32202 
L 285.769495 66.391618 
L 286.119411 62.671956 
L 286.469328 63.792994 
L 286.819244 63.648134 
L 287.16916 66.955589 
L 287.519077 63.605114 
L 287.868993 64.436807 
L 288.218909 68.085182 
L 288.568826 69.491071 
L 288.918742 75.17957 
L 289.268658 75.180016 
L 289.618575 74.819848 
L 289.968491 74.020651 
L 290.318407 70.192255 
L 290.668324 70.866846 
L 291.01824 68.764467 
L 291.368156 67.902226 
L 291.718073 68.307678 
L 292.067989 73.429176 
L 292.417905 70.978868 
L 292.767822 72.161271 
L 293.117738 72.037154 
L 293.467654 75.135152 
L 293.817571 74.348788 
L 294.167487 73.999612 
L 294.517403 73.846951 
L 294.867319 74.104865 
L 295.567152 68.901013 
L 295.917068 67.001146 
L 296.266985 58.570987 
L 296.616901 60.003176 
L 296.966817 60.878925 
L 297.316734 63.351859 
L 297.66665 62.176036 
L 298.016566 63.824943 
L 298.366483 70.515429 
L 298.716399 73.472958 
L 299.066315 73.21312 
L 299.416232 70.606553 
L 299.766148 74.423039 
L 300.116064 75.874342 
L 300.465981 76.143377 
L 300.815897 77.883132 
L 301.165813 76.478258 
L 301.51573 76.38926 
L 301.865646 75.507785 
L 302.215562 77.239807 
L 302.565479 73.32154 
L 302.915395 73.243345 
L 303.265311 69.92601 
L 303.615228 70.946341 
L 303.965144 69.388983 
L 304.31506 71.011615 
L 305.014893 74.993957 
L 305.364809 75.029513 
L 305.714725 75.496995 
L 306.064642 71.56858 
L 306.764474 77.007714 
L 307.114391 72.679586 
L 307.464307 71.076659 
L 307.814223 75.702955 
L 308.16414 74.381258 
L 308.514056 73.708781 
L 308.863972 78.985019 
L 309.213889 79.827597 
L 309.563805 79.792238 
L 310.263638 75.426876 
L 310.613554 75.108587 
L 310.96347 72.44531 
L 311.313387 72.732128 
L 312.013219 77.051591 
L 312.363136 75.617441 
L 312.713052 80.424419 
L 313.062968 78.655609 
L 313.412885 81.335045 
L 313.762801 82.150877 
L 314.112717 80.813283 
L 314.462634 77.697348 
L 314.81255 82.455725 
L 315.162466 84.383025 
L 315.512382 84.182305 
L 315.862299 85.585784 
L 316.212215 83.364259 
L 316.562131 88.470635 
L 317.261964 86.357382 
L 317.61188 86.156817 
L 317.961797 83.337281 
L 318.311713 86.315991 
L 318.661629 83.480809 
L 319.011546 85.150409 
L 319.361462 83.267039 
L 319.711378 83.994957 
L 320.411211 79.86598 
L 320.761127 83.43349 
L 321.111044 83.73916 
L 321.46096 83.890403 
L 321.810876 84.403396 
L 322.160793 86.203271 
L 322.510709 81.518634 
L 322.860625 80.918938 
L 323.210542 76.961846 
L 323.560458 78.303278 
L 323.910374 80.871633 
L 324.260291 80.463261 
L 324.610207 81.787589 
L 324.960123 75.747168 
L 325.31004 75.054939 
L 325.659956 72.093426 
L 326.009872 72.575371 
L 326.359788 73.311891 
L 326.709705 73.310072 
L 327.059621 72.341015 
L 327.409537 70.134661 
L 327.759454 70.361401 
L 328.10937 71.98691 
L 328.459286 74.578691 
L 328.809203 74.691268 
L 329.509035 71.954603 
L 329.858952 71.920011 
L 330.208868 73.342381 
L 330.558784 72.89613 
L 330.908701 71.385959 
L 331.258617 71.398925 
L 331.608533 71.038366 
L 331.95845 71.335981 
L 332.308366 68.963297 
L 332.658282 69.982127 
L 333.008199 69.437961 
L 333.358115 68.369945 
L 333.708031 66.470557 
L 334.057948 62.633122 
L 334.75778 59.265847 
L 335.107697 62.886213 
L 335.457613 61.281333 
L 335.807529 55.421343 
L 336.507362 59.924309 
L 336.857278 60.385097 
L 337.207194 57.732722 
L 337.557111 56.329668 
L 337.907027 57.453134 
L 338.256943 57.464105 
L 338.60686 54.76797 
L 338.956776 52.989223 
L 339.306692 46.762234 
L 339.656609 44.13119 
L 340.006525 43.153285 
L 340.356441 41.511314 
L 340.706358 42.31764 
L 341.056274 44.719698 
L 341.40619 44.20305 
L 341.756107 42.877296 
L 342.106023 46.337455 
L 342.805856 48.436388 
L 343.155772 47.683356 
L 343.505688 48.263016 
L 343.855605 47.055172 
L 344.205521 46.726313 
L 344.555437 43.956534 
L 344.905354 48.215087 
L 345.605186 40.250945 
L 345.955103 40.042526 
L 346.654935 36.6823 
L 347.004852 38.479119 
L 347.354768 37.979427 
L 347.704684 35.91673 
L 348.0546 35.046365 
L 348.404517 32.283429 
L 349.104349 31.6731 
L 349.454266 33.552247 
L 350.154098 35.492893 
L 350.504015 31.060149 
L 350.853931 30.364816 
L 351.203847 32.836445 
L 351.553764 31.738038 
L 351.90368 32.147525 
L 352.253596 39.848891 
L 352.603513 38.547514 
L 352.953429 42.415048 
L 353.303345 40.86466 
L 353.653262 43.226537 
L 354.003178 46.845885 
L 354.353094 45.51229 
L 354.703011 49.218324 
L 355.052927 50.268815 
L 355.402843 49.671542 
L 356.102676 46.073253 
L 356.452592 46.085025 
L 356.802509 48.114367 
L 357.152425 43.155074 
L 357.502341 44.612957 
L 357.852258 39.950787 
L 358.202174 41.020954 
L 358.902006 35.179845 
L 359.251923 37.762979 
L 359.601839 36.777594 
L 360.301672 32.902794 
L 360.651588 33.329737 
L 361.001504 32.478311 
L 361.351421 33.40489 
L 361.701337 36.312076 
L 362.051253 33.722601 
L 362.40117 35.0693 
L 362.751086 31.467719 
L 363.101002 29.847564 
L 363.450919 32.047201 
L 363.800835 32.377982 
L 364.150751 33.028222 
L 364.500668 35.168924 
L 364.850584 33.809472 
L 365.2005 34.949429 
L 365.550417 30.704039 
L 365.900333 28.42231 
L 366.250249 30.591668 
L 366.600166 30.559375 
L 366.950082 31.057891 
L 367.299998 34.969937 
L 368.349747 27.558628 
L 368.699664 28.646808 
L 369.04958 25.829852 
L 369.399496 26.285987 
L 369.749412 23.808897 
L 370.099329 19.075381 
L 370.449245 18.633983 
L 370.799161 22.19718 
L 371.149078 22.928973 
L 371.498994 21.203044 
L 371.84891 17.987796 
L 372.198827 20.819594 
L 372.548743 21.22756 
L 372.898659 20.547242 
L 373.248576 19.348618 
L 373.598492 16.926638 
L 373.948408 19.283711 
L 374.298325 20.290287 
L 374.648241 17.618606 
L 375.348074 15.292576 
L 375.69799 12.311755 
L 376.047906 11.96187 
L 376.397823 10.518182 
L 376.747739 11.248161 
L 377.447572 17.885075 
L 377.797488 17.612609 
L 378.147404 18.044391 
L 378.497321 19.645434 
L 378.847237 18.746968 
L 379.197153 20.952596 
L 379.54707 20.585491 
L 379.896986 20.554379 
L 380.246902 22.62906 
L 380.596818 28.435041 
L 380.946735 24.624871 
L 381.296651 23.732139 
L 381.646567 30.470222 
L 381.996484 31.478788 
L 382.3464 30.391935 
L 382.696316 30.894019 
L 383.046233 29.329962 
L 383.396149 31.736056 
L 383.746065 31.207861 
L 384.095982 31.263661 
L 384.795814 32.134021 
L 385.145731 31.543124 
L 385.495647 29.078675 
L 386.19548 31.312545 
L 386.545396 30.821547 
L 386.895312 31.047671 
L 387.245229 29.981507 
L 387.595145 28.063819 
L 387.945061 24.6767 
L 388.294978 24.894016 
L 388.644894 30.640088 
L 388.99481 30.737144 
L 389.344727 29.751932 
L 389.344727 29.751932 
" style="fill:none;stroke:#1f77b4;stroke-linecap:square;stroke-width:1.5;"/>
   </g>
   <g id="line2d_6">
    <path clip-path="url(#pd95ba4480d)" d="M 39.77832 17.688357 
L 389.344727 17.688357 
" style="fill:none;stroke:#000000;stroke-dasharray:5.55,2.4;stroke-dashoffset:0;stroke-width:1.5;"/>
   </g>
   <g id="line2d_7">
    <path clip-path="url(#pd95ba4480d)" d="M 39.77832 220.881818 
L 389.344727 220.881818 
" style="fill:none;stroke:#000000;stroke-dasharray:5.55,2.4;stroke-dashoffset:0;stroke-width:1.5;"/>
   </g>
   <g id="patch_3">
    <path d="M 22.3 231.4 
L 22.3 0 
" style="fill:none;stroke:#000000;stroke-linecap:square;stroke-linejoin:miter;stroke-width:0.8;"/>
   </g>
   <g id="patch_4">
    <path d="M 22.3 231.4 
L 406.823047 231.4 
" style="fill:none;stroke:#000000;stroke-linecap:square;stroke-linejoin:miter;stroke-width:0.8;"/>
   </g>
  </g>
 </g>
 <defs>
  <clipPath id="pd95ba4480d">
   <rect height="231.4" width="384.523047" x="22.3" y="0"/>
  </clipPath>
 </defs>
</svg>
