<?xml version="1.0" encoding="utf-8" standalone="no"?>
<!DOCTYPE svg PUBLIC "-//W3C//DTD SVG 1.1//EN"
  "http://www.w3.org/Graphics/SVG/1.1/DTD/svg11.dtd">
<!-- Created with matplotlib (https://matplotlib.org/) -->
<svg height="278.478125pt" version="1.1" viewBox="0 0 424.8 278.478125" width="424.8pt" xmlns="http://www.w3.org/2000/svg" xmlns:xlink="http://www.w3.org/1999/xlink">
 <defs>
  <style type="text/css">
*{stroke-linecap:butt;stroke-linejoin:round;}
  </style>
 </defs>
 <g id="figure_1">
  <g id="patch_1">
   <path d="M 0 278.478125 
L 424.8 278.478125 
L 424.8 0 
L 0 0 
z
" style="fill:none;"/>
  </g>
  <g id="axes_1">
   <g id="patch_2">
    <path d="M 10.7 254.6 
L 417.6 254.6 
L 417.6 7.2 
L 10.7 7.2 
z
" style="fill:none;"/>
   </g>
   <g id="matplotlib.axis_1">
    <g id="xtick_1">
     <g id="line2d_1">
      <defs>
       <path d="M 0 0 
L 0 3.5 
" id="meb899f6e73" style="stroke:#000000;stroke-width:0.8;"/>
      </defs>
      <g>
       <use style="stroke:#000000;stroke-width:0.8;" x="116.232888" xlink:href="#meb899f6e73" y="254.6"/>
      </g>
     </g>
     <g id="text_1">
      <!-- 0 -->
      <defs>
       <path d="M 31.78125 66.40625 
Q 24.171875 66.40625 20.328125 58.90625 
Q 16.5 51.421875 16.5 36.375 
Q 16.5 21.390625 20.328125 13.890625 
Q 24.171875 6.390625 31.78125 6.390625 
Q 39.453125 6.390625 43.28125 13.890625 
Q 47.125 21.390625 47.125 36.375 
Q 47.125 51.421875 43.28125 58.90625 
Q 39.453125 66.40625 31.78125 66.40625 
z
M 31.78125 74.21875 
Q 44.046875 74.21875 50.515625 64.515625 
Q 56.984375 54.828125 56.984375 36.375 
Q 56.984375 17.96875 50.515625 8.265625 
Q 44.046875 -1.421875 31.78125 -1.421875 
Q 19.53125 -1.421875 13.0625 8.265625 
Q 6.59375 17.96875 6.59375 36.375 
Q 6.59375 54.828125 13.0625 64.515625 
Q 19.53125 74.21875 31.78125 74.21875 
z
" id="DejaVuSans-48"/>
      </defs>
      <g transform="translate(113.051638 269.198437)scale(0.1 -0.1)">
       <use xlink:href="#DejaVuSans-48"/>
      </g>
     </g>
    </g>
    <g id="xtick_2">
     <g id="line2d_2">
      <g>
       <use style="stroke:#000000;stroke-width:0.8;" x="333.826471" xlink:href="#meb899f6e73" y="254.6"/>
      </g>
     </g>
     <g id="text_2">
      <!-- $\gamma$ -->
      <defs>
       <path d="M 23.296875 46.09375 
L 28.71875 12.3125 
L 54 54.6875 
L 63.53125 54.6875 
L 30.8125 0 
L 26.765625 -20.796875 
L 17.78125 -20.796875 
L 21.828125 0 
L 15.4375 40.828125 
Q 14.453125 46.96875 9.8125 46.96875 
L 7.421875 46.96875 
L 8.890625 54.6875 
L 12.3125 54.6875 
Q 21.921875 54.6875 23.296875 46.09375 
z
" id="DejaVuSans-Oblique-947"/>
      </defs>
      <g transform="translate(330.826471 269.178125)scale(0.1 -0.1)">
       <use transform="translate(0 0.3125)" xlink:href="#DejaVuSans-Oblique-947"/>
      </g>
     </g>
    </g>
   </g>
   <g id="matplotlib.axis_2"/>
   <g id="line2d_3">
    <path clip-path="url(#p0a7d82c058)" d="M 29.195455 241.001505 
L 36.608462 240.094041 
L 44.02147 238.965818 
L 51.434478 237.616144 
L 59.588787 235.901498 
L 69.966998 233.473783 
L 86.275615 229.635609 
L 93.688623 228.151014 
L 99.619029 227.189735 
L 104.808134 226.556732 
L 109.99724 226.145367 
L 115.186345 225.972822 
L 120.375451 226.04639 
L 125.564556 226.362955 
L 130.753662 226.909217 
L 136.684068 227.785469 
L 142.614474 228.886222 
L 150.027482 230.493654 
L 162.629596 233.505354 
L 174.490408 236.257491 
L 182.644717 237.928064 
L 190.057725 239.230502 
L 197.470732 240.30997 
L 204.88374 241.171168 
L 213.038049 241.889887 
L 221.933658 242.444232 
L 232.311869 242.858768 
L 245.655283 243.145766 
L 264.929104 243.303837 
L 305.700647 243.353214 
L 399.104545 243.354545 
L 399.104545 243.354545 
" style="fill:none;stroke:#1f77b4;stroke-linecap:square;stroke-width:1.5;"/>
   </g>
   <g id="line2d_4">
    <path clip-path="url(#p0a7d82c058)" d="M 29.195455 243.354545 
L 149.286181 243.25408 
L 155.216588 243.015355 
L 158.923092 242.676716 
L 161.888295 242.218819 
L 164.853498 241.514366 
L 167.0774 240.769367 
L 169.301303 239.790633 
L 171.525205 238.533186 
L 173.749107 236.953983 
L 175.97301 235.016336 
L 178.196912 232.695126 
L 180.420814 229.982422 
L 182.644717 226.892898 
L 184.868619 223.468323 
L 187.833822 218.509209 
L 194.505529 207.08495 
L 196.729432 203.733966 
L 198.212033 201.767884 
L 199.694635 200.068736 
L 201.177236 198.676384 
L 202.659838 197.624324 
L 204.142439 196.938347 
L 205.625041 196.635485 
L 207.107643 196.723314 
L 208.590244 197.199634 
L 210.072846 198.052561 
L 211.555447 199.261023 
L 213.038049 200.795624 
L 214.52065 202.619829 
L 216.744553 205.805617 
L 219.709756 210.643437 
L 227.864064 224.524426 
L 230.087967 227.854876 
L 232.311869 230.834732 
L 234.535772 233.430714 
L 236.759674 235.63544 
L 238.983576 237.462574 
L 241.207479 238.941276 
L 243.431381 240.110654 
L 245.655283 241.014748 
L 247.879186 241.698409 
L 250.844389 242.340072 
L 253.809592 242.753623 
L 257.516096 243.056656 
L 262.705201 243.252416 
L 272.342111 243.343894 
L 321.267963 243.354545 
L 399.104545 243.354545 
L 399.104545 243.354545 
" style="fill:none;stroke:#ff7f0e;stroke-linecap:square;stroke-width:1.5;"/>
   </g>
   <g id="line2d_5">
    <path clip-path="url(#p0a7d82c058)" d="M 29.195455 243.354545 
L 199.694635 243.257875 
L 204.142439 243.038111 
L 207.107643 242.702303 
L 209.331545 242.271436 
L 211.555447 241.609548 
L 213.038049 240.996371 
L 214.52065 240.210298 
L 216.003252 239.218195 
L 217.485854 237.985742 
L 218.968455 236.479154 
L 220.451057 234.667401 
L 221.933658 232.524848 
L 223.41626 230.034206 
L 224.898861 227.18961 
L 227.122764 222.282273 
L 229.346666 216.703879 
L 232.311869 208.57991 
L 236.018373 198.391681 
L 238.242275 192.971101 
L 239.724877 189.905077 
L 241.207479 187.409889 
L 242.69008 185.580402 
L 243.431381 184.938675 
L 244.172682 184.488059 
L 244.913983 184.233066 
L 245.655283 184.176258 
L 246.396584 184.318206 
L 247.137885 184.657483 
L 247.879186 185.190684 
L 248.620486 185.912484 
L 250.103088 187.891545 
L 251.58569 190.517759 
L 253.068291 193.691984 
L 255.292193 199.226204 
L 258.998697 209.470375 
L 261.963901 217.53558 
L 264.187803 223.027956 
L 266.411705 227.828906 
L 267.894307 230.597824 
L 269.376908 233.012931 
L 270.85951 235.082797 
L 272.342111 236.826759 
L 273.824713 238.271848 
L 275.307315 239.449894 
L 276.789916 240.394966 
L 278.272518 241.14126 
L 280.49642 241.958827 
L 282.720322 242.500624 
L 285.685526 242.931419 
L 289.39203 243.191453 
L 295.322436 243.324757 
L 312.372354 243.354478 
L 399.104545 243.354545 
L 399.104545 243.354545 
" style="fill:none;stroke:#2ca02c;stroke-linecap:square;stroke-width:1.5;"/>
   </g>
   <g id="line2d_6">
    <path clip-path="url(#p0a7d82c058)" d="M 29.195455 243.354545 
L 236.018373 243.244097 
L 239.724877 243.026596 
L 242.69008 242.626566 
L 244.913983 242.086016 
L 246.396584 241.554625 
L 247.879186 240.841859 
L 249.361787 239.90346 
L 250.844389 238.691117 
L 252.32699 237.154608 
L 253.809592 235.244907 
L 255.292193 232.918212 
L 256.774795 230.140777 
L 258.257397 226.894247 
L 259.739998 223.181058 
L 261.963901 216.805805 
L 264.187803 209.672033 
L 269.376908 192.452351 
L 270.85951 188.137668 
L 272.342111 184.424137 
L 273.824713 181.476108 
L 274.566014 180.333024 
L 275.307315 179.429434 
L 276.048615 178.776161 
L 276.789916 178.381096 
L 277.531217 178.249036 
L 278.272518 178.381589 
L 279.013819 178.777141 
L 279.755119 179.43089 
L 280.49642 180.334938 
L 281.237721 181.478456 
L 282.720322 184.427267 
L 284.202924 188.14144 
L 285.685526 192.4566 
L 287.909428 199.659181 
L 293.098533 216.810036 
L 295.322436 223.184732 
L 296.805037 226.897495 
L 298.287639 230.143585 
L 299.77024 232.920588 
L 301.252842 235.246877 
L 302.735444 237.156208 
L 304.218045 238.69239 
L 305.700647 239.904455 
L 307.183248 240.842621 
L 308.66585 241.555199 
L 310.889752 242.296449 
L 313.113655 242.754708 
L 316.078858 243.088693 
L 320.526662 243.285116 
L 329.422272 243.351494 
L 399.104545 243.354545 
L 399.104545 243.354545 
" style="fill:none;stroke:#d62728;stroke-linecap:square;stroke-width:1.5;"/>
   </g>
   <g id="line2d_7">
    <path clip-path="url(#p0a7d82c058)" d="M 29.195455 243.354545 
L 270.85951 243.249749 
L 273.824713 243.049088 
L 276.048615 242.714017 
L 277.531217 242.335636 
L 279.013819 241.771484 
L 280.49642 240.952258 
L 281.979022 239.793995 
L 283.461623 238.200191 
L 284.944225 236.066747 
L 286.426826 233.29025 
L 287.909428 229.779687 
L 289.39203 225.471057 
L 290.874631 220.343619 
L 292.357233 214.435703 
L 294.581135 204.372879 
L 299.77024 179.691244 
L 301.252842 173.896006 
L 302.735444 169.338294 
L 303.476744 167.620761 
L 304.218045 166.31859 
L 304.959346 165.454355 
L 305.700647 165.043179 
L 306.441948 165.092296 
L 307.183248 165.600842 
L 307.924549 166.559875 
L 308.66585 167.952642 
L 309.407151 169.75506 
L 310.889752 174.460224 
L 312.372354 180.366661 
L 314.596256 190.670795 
L 319.044061 211.918391 
L 320.526662 218.10752 
L 322.009264 223.550406 
L 323.491866 228.181713 
L 324.974467 232.000717 
L 326.457069 235.056364 
L 327.93967 237.430908 
L 329.422272 239.224461 
L 330.904873 240.542034 
L 332.387475 241.483886 
L 333.870077 242.139311 
L 335.352678 242.583482 
L 337.57658 242.981686 
L 340.541784 243.22423 
L 345.730889 243.338044 
L 366.487311 243.354545 
L 399.104545 243.354545 
L 399.104545 243.354545 
" style="fill:none;stroke:#9467bd;stroke-linecap:square;stroke-width:1.5;"/>
   </g>
   <g id="line2d_8">
    <path clip-path="url(#p0a7d82c058)" d="M 333.870077 18.445455 
L 334.611377 36.841457 
L 335.352678 53.787807 
L 336.093979 69.394033 
L 336.83528 83.761778 
L 337.57658 96.985339 
L 338.317881 109.152166 
L 339.059182 120.343333 
L 339.800483 130.633978 
L 340.541784 140.093713 
L 341.283084 148.787012 
L 342.024385 156.773568 
L 342.765686 164.108628 
L 343.506987 170.843312 
L 344.248287 177.024901 
L 344.989588 182.697111 
L 345.730889 187.900353 
L 346.47219 192.671964 
L 347.213491 197.046437 
L 347.954791 201.055618 
L 348.696092 204.728909 
L 349.437393 208.09344 
L 350.178694 211.174238 
L 350.919995 213.994384 
L 351.661295 216.575156 
L 352.402596 218.936163 
L 353.143897 221.095471 
L 353.885198 223.06972 
L 354.626498 224.874227 
L 355.367799 226.523092 
L 356.1091 228.029288 
L 356.850401 229.404748 
L 357.591702 230.660443 
L 358.333002 231.806457 
L 359.074303 232.852057 
L 359.815604 233.805757 
L 360.556905 234.675373 
L 361.298206 235.468081 
L 362.039506 236.190466 
L 362.780807 236.84857 
L 363.522108 237.447934 
L 364.263409 237.993637 
L 365.004709 238.490335 
L 365.74601 238.942293 
L 366.487311 239.353419 
L 367.228612 239.72729 
L 367.969913 240.067179 
L 368.711213 240.376084 
L 369.452514 240.656745 
L 370.193815 240.911668 
L 370.935116 241.143144 
L 371.676416 241.353267 
L 372.417717 241.543951 
L 373.159018 241.716941 
L 373.900319 241.873833 
L 374.64162 242.016082 
L 375.38292 242.145016 
L 376.124221 242.261847 
L 376.865522 242.36768 
L 377.606823 242.463521 
L 378.348124 242.550288 
L 379.089424 242.628816 
L 379.830725 242.699866 
L 380.572026 242.764132 
L 381.313327 242.822244 
L 382.054627 242.874775 
L 382.795928 242.922247 
L 383.537229 242.965136 
L 384.27853 243.003871 
L 385.019831 243.038844 
L 385.761131 243.070413 
L 386.502432 243.098898 
L 387.243733 243.124595 
L 387.985034 243.147768 
L 388.726334 243.168661 
L 389.467635 243.187491 
L 390.208936 243.204457 
L 390.950237 243.219739 
L 391.691538 243.2335 
L 392.432838 243.245888 
L 393.174139 243.257036 
L 393.91544 243.267066 
L 394.656741 243.276087 
L 395.398042 243.284198 
L 396.139342 243.291489 
L 396.880643 243.298041 
L 397.621944 243.303927 
L 398.363245 243.309212 
L 399.104545 243.313958 
" style="fill:none;stroke:#8c564b;stroke-linecap:square;stroke-width:1.5;"/>
   </g>
   <g id="line2d_9">
    <path clip-path="url(#p0a7d82c058)" d="M 333.826471 254.6 
L 333.826471 7.2 
" style="fill:none;stroke:#808080;stroke-dasharray:5.55,2.4;stroke-dashoffset:0;stroke-opacity:0.5;stroke-width:1.5;"/>
   </g>
   <g id="patch_3">
    <path d="M 10.7 254.6 
L 10.7 7.2 
" style="fill:none;stroke:#000000;stroke-linecap:square;stroke-linejoin:miter;stroke-width:0.8;"/>
   </g>
   <g id="patch_4">
    <path d="M 10.7 254.6 
L 417.6 254.6 
" style="fill:none;stroke:#000000;stroke-linecap:square;stroke-linejoin:miter;stroke-width:0.8;"/>
   </g>
  </g>
 </g>
 <defs>
  <clipPath id="p0a7d82c058">
   <rect height="247.4" width="406.9" x="10.7" y="7.2"/>
  </clipPath>
 </defs>
</svg>
