<?xml version="1.0" encoding="utf-8" standalone="no"?>
<!DOCTYPE svg PUBLIC "-//W3C//DTD SVG 1.1//EN"
  "http://www.w3.org/Graphics/SVG/1.1/DTD/svg11.dtd">
<!-- Created with matplotlib (https://matplotlib.org/) -->
<svg height="261.75625pt" version="1.1" viewBox="0 0 406.823047 261.75625" width="406.823047pt" xmlns="http://www.w3.org/2000/svg" xmlns:xlink="http://www.w3.org/1999/xlink">
 <defs>
  <style type="text/css">
*{stroke-linecap:butt;stroke-linejoin:round;}
  </style>
 </defs>
 <g id="figure_1">
  <g id="patch_1">
   <path d="M 0 261.75625 
L 406.823047 261.75625 
L 406.823047 0 
L 0 0 
z
" style="fill:none;"/>
  </g>
  <g id="axes_1">
   <g id="patch_2">
    <path d="M 22.3 231.4 
L 406.823047 231.4 
L 406.823047 0 
L 22.3 0 
z
" style="fill:none;"/>
   </g>
   <g id="matplotlib.axis_1">
    <g id="xtick_1">
     <g id="line2d_1">
      <defs>
       <path d="M 0 0 
L 0 3.5 
" id="ma65373fe0d" style="stroke:#000000;stroke-width:0.8;"/>
      </defs>
      <g>
       <use style="stroke:#000000;stroke-width:0.8;" x="39.77832" xlink:href="#ma65373fe0d" y="231.4"/>
      </g>
     </g>
     <g id="text_1">
      <!-- 0 -->
      <defs>
       <path d="M 31.78125 66.40625 
Q 24.171875 66.40625 20.328125 58.90625 
Q 16.5 51.421875 16.5 36.375 
Q 16.5 21.390625 20.328125 13.890625 
Q 24.171875 6.390625 31.78125 6.390625 
Q 39.453125 6.390625 43.28125 13.890625 
Q 47.125 21.390625 47.125 36.375 
Q 47.125 51.421875 43.28125 58.90625 
Q 39.453125 66.40625 31.78125 66.40625 
z
M 31.78125 74.21875 
Q 44.046875 74.21875 50.515625 64.515625 
Q 56.984375 54.828125 56.984375 36.375 
Q 56.984375 17.96875 50.515625 8.265625 
Q 44.046875 -1.421875 31.78125 -1.421875 
Q 19.53125 -1.421875 13.0625 8.265625 
Q 6.59375 17.96875 6.59375 36.375 
Q 6.59375 54.828125 13.0625 64.515625 
Q 19.53125 74.21875 31.78125 74.21875 
z
" id="DejaVuSans-48"/>
      </defs>
      <g transform="translate(36.59707 245.998438)scale(0.1 -0.1)">
       <use xlink:href="#DejaVuSans-48"/>
      </g>
     </g>
    </g>
    <g id="xtick_2">
     <g id="line2d_2">
      <g>
       <use style="stroke:#000000;stroke-width:0.8;" x="389.344727" xlink:href="#ma65373fe0d" y="231.4"/>
      </g>
     </g>
     <g id="text_2">
      <!-- $T$ -->
      <defs>
       <path d="M 5.90625 72.90625 
L 67.578125 72.90625 
L 66.015625 64.59375 
L 39.984375 64.59375 
L 27.484375 0 
L 17.578125 0 
L 30.078125 64.59375 
L 4.296875 64.59375 
z
" id="DejaVuSans-Oblique-84"/>
      </defs>
      <g transform="translate(386.244727 245.998438)scale(0.1 -0.1)">
       <use transform="translate(0 0.09375)" xlink:href="#DejaVuSans-Oblique-84"/>
      </g>
     </g>
    </g>
    <g id="text_3">
     <!-- $t$ -->
     <defs>
      <path d="M 42.28125 54.6875 
L 40.921875 47.703125 
L 23 47.703125 
L 17.1875 18.015625 
Q 16.890625 16.359375 16.75 15.234375 
Q 16.609375 14.109375 16.609375 13.484375 
Q 16.609375 10.359375 18.484375 8.9375 
Q 20.359375 7.515625 24.515625 7.515625 
L 33.59375 7.515625 
L 32.078125 0 
L 23.484375 0 
Q 15.484375 0 11.546875 3.125 
Q 7.625 6.25 7.625 12.59375 
Q 7.625 13.71875 7.765625 15.0625 
Q 7.90625 16.40625 8.203125 18.015625 
L 14.015625 47.703125 
L 6.390625 47.703125 
L 7.8125 54.6875 
L 15.28125 54.6875 
L 18.3125 70.21875 
L 27.296875 70.21875 
L 24.3125 54.6875 
z
" id="DejaVuSans-Oblique-116"/>
     </defs>
     <g transform="translate(212.561523 259.676563)scale(0.1 -0.1)">
      <use transform="translate(0 0.78125)" xlink:href="#DejaVuSans-Oblique-116"/>
     </g>
    </g>
   </g>
   <g id="matplotlib.axis_2">
    <g id="ytick_1">
     <g id="line2d_3">
      <defs>
       <path d="M 0 0 
L -3.5 0 
" id="m6c05b2d0b7" style="stroke:#000000;stroke-width:0.8;"/>
      </defs>
      <g>
       <use style="stroke:#000000;stroke-width:0.8;" x="22.3" xlink:href="#m6c05b2d0b7" y="10.518182"/>
      </g>
     </g>
     <g id="text_4">
      <!-- $K$ -->
      <defs>
       <path d="M 16.890625 72.90625 
L 26.8125 72.90625 
L 20.796875 42.1875 
L 59.078125 72.90625 
L 72.21875 72.90625 
L 28.90625 38.09375 
L 60.59375 0 
L 48.578125 0 
L 19.484375 35.5 
L 12.59375 0 
L 2.6875 0 
z
" id="DejaVuSans-Oblique-75"/>
      </defs>
      <g transform="translate(8.7 14.317401)scale(0.1 -0.1)">
       <use transform="translate(0 0.09375)" xlink:href="#DejaVuSans-Oblique-75"/>
      </g>
     </g>
    </g>
    <g id="text_5">
     <!-- $S_t$ -->
     <defs>
      <path d="M 60.296875 70.515625 
L 58.40625 60.890625 
Q 53.46875 63.53125 48.609375 64.875 
Q 43.75 66.21875 39.203125 66.21875 
Q 30.375 66.21875 25.140625 62.359375 
Q 19.921875 58.5 19.921875 52.09375 
Q 19.921875 48.578125 21.84375 46.703125 
Q 23.78125 44.828125 31.78125 42.671875 
L 37.703125 41.21875 
Q 47.703125 38.625 51.609375 34.640625 
Q 55.515625 30.671875 55.515625 23.484375 
Q 55.515625 12.453125 46.84375 5.515625 
Q 38.1875 -1.421875 24.03125 -1.421875 
Q 18.21875 -1.421875 12.359375 -0.265625 
Q 6.5 0.875 0.59375 3.21875 
L 2.59375 13.375 
Q 8.015625 10.015625 13.453125 8.296875 
Q 18.890625 6.59375 24.3125 6.59375 
Q 33.546875 6.59375 39.109375 10.6875 
Q 44.671875 14.796875 44.671875 21.390625 
Q 44.671875 25.78125 42.453125 28.046875 
Q 40.234375 30.328125 32.90625 32.171875 
L 27 33.6875 
Q 16.890625 36.328125 13.203125 39.765625 
Q 9.515625 43.21875 9.515625 49.421875 
Q 9.515625 60.296875 17.890625 67.25 
Q 26.265625 74.21875 39.703125 74.21875 
Q 44.921875 74.21875 50.046875 73.28125 
Q 55.171875 72.359375 60.296875 70.515625 
z
" id="DejaVuSans-Oblique-83"/>
     </defs>
     <g transform="translate(0 113.620313)scale(0.1 -0.1)">
      <use transform="translate(0 0.78125)" xlink:href="#DejaVuSans-Oblique-83"/>
      <use transform="translate(63.476562 -15.625)scale(0.7)" xlink:href="#DejaVuSans-Oblique-116"/>
     </g>
    </g>
   </g>
   <g id="line2d_4">
    <path clip-path="url(#pf727235049)" d="M 39.77832 219.430242 
L 40.128237 217.776513 
L 40.828069 218.614231 
L 41.177986 219.507984 
L 41.527902 218.571211 
L 41.877818 220.624804 
L 42.227735 218.857968 
L 42.577651 219.457288 
L 42.927567 219.036514 
L 43.277484 219.152495 
L 43.6274 217.651899 
L 43.977316 219.478199 
L 44.677149 219.906245 
L 45.027065 218.716148 
L 45.376981 219.635291 
L 45.726898 219.678604 
L 46.076814 220.387872 
L 46.42673 220.228561 
L 46.776647 219.55885 
L 47.126563 220.47842 
L 47.826396 218.307184 
L 48.176312 217.712928 
L 48.526228 216.742089 
L 48.876145 217.268622 
L 49.226061 217.26516 
L 49.575977 218.02971 
L 49.925894 218.163223 
L 50.27581 217.542614 
L 50.625726 218.0765 
L 50.975643 218.331738 
L 52.025392 220.054133 
L 52.375308 219.946615 
L 52.725224 220.881818 
L 53.075141 220.541122 
L 53.425057 218.854522 
L 53.774973 218.034085 
L 54.12489 218.095755 
L 54.824722 219.40069 
L 55.174639 217.682596 
L 55.524555 217.515021 
L 55.874471 217.997271 
L 56.224387 217.697344 
L 56.574304 215.592737 
L 56.92422 215.359472 
L 57.274136 214.656145 
L 57.624053 214.252542 
L 57.973969 214.466015 
L 58.323885 215.426771 
L 58.673802 215.637411 
L 59.023718 215.715258 
L 59.723551 214.127752 
L 60.073467 213.127128 
L 60.423383 212.737119 
L 60.7733 211.77954 
L 61.123216 212.373836 
L 61.473132 211.067964 
L 61.823049 210.462384 
L 62.172965 210.62484 
L 62.522881 210.042293 
L 62.872798 209.994001 
L 63.57263 207.241466 
L 63.922547 205.048541 
L 64.622379 207.502534 
L 64.972296 207.860778 
L 65.322212 207.589105 
L 65.672128 206.638386 
L 66.022045 206.219034 
L 66.371961 208.016365 
L 66.721877 208.186641 
L 67.071793 207.281804 
L 67.42171 206.943651 
L 67.771626 206.101003 
L 68.471459 206.262215 
L 68.821375 205.965239 
L 69.171291 205.456224 
L 69.871124 204.915043 
L 70.22104 205.431266 
L 70.570957 204.952986 
L 70.920873 204.717313 
L 71.620706 202.266728 
L 71.970622 201.97069 
L 72.320538 202.206917 
L 72.670455 202.693286 
L 73.020371 202.170949 
L 73.370287 201.977304 
L 73.720204 202.183679 
L 74.07012 202.022083 
L 74.420036 202.490696 
L 74.769953 201.707567 
L 75.119869 202.012048 
L 75.469785 200.7286 
L 76.169618 199.540498 
L 76.519534 200.460814 
L 76.869451 200.179589 
L 77.219367 199.355433 
L 77.569283 200.141609 
L 77.919199 200.274335 
L 78.269116 200.123072 
L 78.619032 201.307509 
L 78.968948 200.887863 
L 79.318865 199.963537 
L 79.668781 200.660063 
L 80.018697 200.206697 
L 80.368614 201.333311 
L 80.71853 201.249847 
L 81.068446 202.66426 
L 81.418363 201.47902 
L 81.768279 200.970338 
L 82.118195 200.873487 
L 82.468112 201.489674 
L 82.818028 200.1592 
L 83.167944 198.168861 
L 83.517861 199.814941 
L 84.217693 196.85101 
L 84.56761 196.408997 
L 84.917526 197.429537 
L 85.267442 196.487795 
L 85.617359 196.539524 
L 85.967275 196.993695 
L 86.317191 198.043319 
L 87.017024 196.524697 
L 87.36694 196.997526 
L 87.716857 196.381823 
L 88.066773 197.350125 
L 88.416689 196.466862 
L 88.766605 196.302131 
L 89.466438 196.335632 
L 90.166271 194.55342 
L 90.516187 193.928752 
L 91.21602 193.482437 
L 91.565936 192.77284 
L 91.915852 192.430764 
L 92.265769 191.659763 
L 92.615685 191.834698 
L 92.965601 194.033623 
L 93.315518 192.923656 
L 93.665434 190.718914 
L 94.01535 190.177455 
L 95.415016 190.017289 
L 95.764932 190.966361 
L 96.114848 191.338619 
L 96.464765 192.168177 
L 96.814681 191.810494 
L 97.164597 191.972579 
L 97.514514 191.380023 
L 97.86443 191.425913 
L 98.214346 190.365031 
L 98.564263 190.040761 
L 98.914179 187.830358 
L 99.264095 189.518703 
L 99.614011 190.014934 
L 99.963928 189.034488 
L 100.313844 186.501047 
L 100.66376 186.61759 
L 101.013677 186.455086 
L 101.363593 186.550323 
L 101.713509 185.158121 
L 102.063426 185.31165 
L 102.413342 184.541197 
L 102.763258 184.725796 
L 103.113175 185.820285 
L 103.463091 185.400013 
L 103.813007 184.798548 
L 104.162924 183.442072 
L 104.51284 183.42668 
L 104.862756 183.895675 
L 105.212673 183.236973 
L 105.912505 182.496689 
L 106.262422 182.445602 
L 106.612338 181.215156 
L 106.962254 180.740734 
L 107.312171 178.797292 
L 107.662087 177.612546 
L 108.012003 176.860259 
L 108.36192 178.297329 
L 109.411669 176.177975 
L 109.761585 175.05604 
L 110.111501 175.318908 
L 110.461417 174.407947 
L 110.811334 174.82558 
L 111.16125 172.830175 
L 111.511166 173.985912 
L 112.210999 177.012006 
L 112.910832 178.693731 
L 113.260748 176.699725 
L 113.610664 176.891218 
L 113.960581 178.055673 
L 114.310497 176.867452 
L 114.660413 177.307936 
L 115.01033 178.370935 
L 115.710162 176.693104 
L 116.060079 176.988466 
L 116.409995 175.518955 
L 116.759911 175.273993 
L 117.109828 173.602887 
L 117.459744 172.999496 
L 117.80966 171.382922 
L 118.159577 171.156526 
L 118.509493 172.205276 
L 118.859409 169.733489 
L 119.209326 170.135899 
L 119.559242 170.205278 
L 119.909158 170.756012 
L 120.259075 170.82975 
L 120.958907 170.160239 
L 121.308823 169.404208 
L 121.65874 167.561554 
L 122.008656 167.555703 
L 122.708489 169.632242 
L 123.058405 170.149828 
L 123.408321 171.634941 
L 123.758238 170.721889 
L 124.108154 171.078531 
L 124.45807 171.255494 
L 124.807987 171.13588 
L 125.157903 172.35429 
L 125.507819 173.058944 
L 126.207652 171.575758 
L 126.557568 171.8795 
L 126.907485 170.020709 
L 127.257401 171.152354 
L 127.957234 171.461992 
L 128.30715 174.019228 
L 128.657066 172.039935 
L 129.006983 171.567104 
L 129.356899 172.447725 
L 129.706815 170.358334 
L 130.406648 169.140821 
L 130.756564 169.602085 
L 131.106481 169.37861 
L 131.456397 170.72158 
L 131.806313 169.837055 
L 132.156229 170.074997 
L 132.506146 169.824846 
L 132.856062 168.549199 
L 133.905811 167.393329 
L 134.255727 167.976149 
L 134.605644 167.051451 
L 134.95556 165.446553 
L 135.655393 163.62255 
L 136.355225 165.057324 
L 136.705142 166.320708 
L 137.055058 165.014553 
L 137.404974 165.137257 
L 137.754891 163.669396 
L 138.104807 164.299707 
L 138.454723 164.598732 
L 138.80464 164.385272 
L 139.154556 163.377285 
L 139.504472 163.197097 
L 139.854389 162.872221 
L 140.204305 162.734554 
L 140.554221 162.442286 
L 140.904138 163.394704 
L 141.254054 163.195106 
L 141.60397 163.252851 
L 141.953887 163.18577 
L 142.303803 162.590316 
L 142.653719 163.123461 
L 143.003635 163.083009 
L 143.353552 163.247333 
L 143.703468 162.72409 
L 144.053384 161.847103 
L 144.403301 162.644753 
L 144.753217 161.959137 
L 145.103133 159.848447 
L 145.45305 161.143147 
L 146.152882 162.546068 
L 146.502799 162.692847 
L 146.852715 161.00912 
L 147.202631 160.874425 
L 147.552548 161.421361 
L 147.902464 160.700911 
L 148.25238 161.156533 
L 148.602297 159.95298 
L 148.952213 159.537082 
L 149.302129 158.077178 
L 149.652046 158.592486 
L 150.001962 155.548834 
L 150.701795 153.877682 
L 151.051711 153.804954 
L 151.751544 155.098033 
L 152.10146 155.107122 
L 152.451376 155.75402 
L 152.801293 155.359339 
L 153.151209 156.033981 
L 153.501125 155.312951 
L 153.851041 154.268502 
L 154.200958 154.827379 
L 154.550874 153.554468 
L 154.90079 153.661965 
L 155.250707 152.424673 
L 155.600623 151.879421 
L 155.950539 150.673245 
L 156.300456 151.513994 
L 156.650372 151.494911 
L 157.000288 149.970617 
L 157.350205 150.445459 
L 158.74987 158.254969 
L 159.099786 158.529663 
L 159.449703 157.175553 
L 159.799619 157.479828 
L 160.149535 157.04599 
L 160.499452 157.030024 
L 160.849368 156.899783 
L 161.549201 156.985841 
L 161.899117 156.419229 
L 162.249033 157.430896 
L 162.948866 155.325825 
L 163.298782 155.391897 
L 163.648699 154.492899 
L 164.348531 155.443508 
L 164.698447 155.170722 
L 165.048364 155.232132 
L 165.39828 155.542879 
L 166.098113 156.484845 
L 166.448029 155.457149 
L 166.797945 157.208884 
L 167.147862 156.747081 
L 167.497778 156.853014 
L 168.197611 155.410474 
L 168.547527 157.971079 
L 168.897443 157.285628 
L 169.24736 156.851042 
L 169.597276 156.707959 
L 169.947192 157.037773 
L 170.297109 156.093084 
L 170.647025 156.369313 
L 170.996941 154.477683 
L 171.346858 153.811 
L 171.696774 151.625084 
L 172.04669 152.26139 
L 172.396607 153.83413 
L 173.096439 152.076752 
L 173.446356 151.920412 
L 173.796272 153.283765 
L 174.146188 153.593897 
L 174.496105 152.875279 
L 175.545853 152.967905 
L 175.89577 153.747125 
L 176.245686 154.139348 
L 176.595602 155.393458 
L 176.945519 153.56565 
L 177.295435 153.902269 
L 177.645351 153.31921 
L 177.995268 154.183224 
L 178.345184 153.294356 
L 178.6951 154.979655 
L 179.045017 153.969354 
L 179.394933 153.881362 
L 179.744849 151.721785 
L 180.094766 152.861035 
L 180.444682 152.665135 
L 180.794598 152.188414 
L 181.144515 150.875559 
L 181.494431 151.161753 
L 181.844347 150.956004 
L 182.194264 152.902563 
L 182.54418 153.581679 
L 182.894096 153.023651 
L 183.244013 151.835457 
L 183.593929 151.985301 
L 184.293762 148.053139 
L 184.643678 147.989423 
L 185.343511 151.794444 
L 185.693427 152.423305 
L 186.043343 151.22361 
L 186.393259 150.801684 
L 186.743176 152.701794 
L 187.093092 152.800462 
L 187.443008 151.120422 
L 187.792925 151.360186 
L 188.142841 151.962207 
L 188.492757 149.855363 
L 188.842674 149.681467 
L 189.19259 150.022171 
L 189.542506 149.561528 
L 189.892423 149.422642 
L 190.242339 149.715046 
L 190.942172 147.223623 
L 191.292088 146.287906 
L 191.642004 146.265011 
L 191.991921 145.032836 
L 192.341837 144.95846 
L 192.691753 144.384308 
L 193.391586 142.355088 
L 193.741502 140.498338 
L 194.091419 139.938238 
L 194.441335 141.447698 
L 194.791251 142.449018 
L 195.141168 141.018395 
L 195.491084 141.216781 
L 195.841 140.71956 
L 196.190917 141.422013 
L 196.540833 140.329421 
L 196.890749 140.579751 
L 197.240665 139.04353 
L 197.590582 139.436882 
L 197.940498 138.229858 
L 198.290414 137.452893 
L 198.640331 138.030906 
L 198.990247 136.841898 
L 199.69008 138.268974 
L 200.039996 137.446115 
L 200.739829 138.383239 
L 201.089745 138.594032 
L 201.439661 139.441161 
L 201.789578 138.305077 
L 202.139494 137.592045 
L 202.839327 137.518908 
L 203.189243 136.959358 
L 203.539159 135.123045 
L 203.889076 134.154382 
L 204.238992 134.525271 
L 204.588908 133.647294 
L 205.288741 133.710103 
L 205.638657 131.773544 
L 206.33849 132.400417 
L 207.038323 135.412732 
L 207.388239 134.851859 
L 207.738155 135.403693 
L 208.088071 134.780391 
L 208.437988 135.739919 
L 208.787904 136.361849 
L 209.13782 135.584241 
L 209.487737 134.04281 
L 209.837653 133.344371 
L 210.187569 132.057492 
L 210.537486 130.277312 
L 210.887402 129.142603 
L 211.237318 129.912858 
L 211.587235 129.89223 
L 211.937151 129.15615 
L 212.287067 129.436589 
L 212.636984 128.873822 
L 212.9869 130.286722 
L 213.336816 130.969373 
L 213.686733 130.332075 
L 214.036649 132.383735 
L 214.386565 133.337058 
L 214.736482 133.231324 
L 215.086398 134.778399 
L 215.436314 134.600041 
L 215.786231 135.253501 
L 216.486063 135.542292 
L 216.83598 135.235658 
L 217.185896 135.66013 
L 217.535812 135.450208 
L 217.885729 135.910923 
L 218.235645 135.248248 
L 218.585561 133.480394 
L 219.285394 132.878194 
L 219.63531 133.886044 
L 219.985226 133.089547 
L 220.685059 134.36572 
L 221.034975 133.701384 
L 221.384892 133.402585 
L 222.084724 130.678222 
L 222.434641 131.079888 
L 222.784557 130.832035 
L 223.134473 128.99684 
L 224.184222 125.721002 
L 224.534139 126.186533 
L 224.884055 125.443344 
L 225.583888 122.243849 
L 225.933804 122.90641 
L 226.28372 123.028372 
L 226.633637 122.531926 
L 227.333469 122.948866 
L 227.683386 122.158663 
L 228.033302 122.379843 
L 228.383218 123.999152 
L 228.733135 123.5232 
L 229.083051 123.813553 
L 229.432967 124.403041 
L 229.782883 125.804927 
L 230.1328 124.694157 
L 230.832632 128.270695 
L 231.182549 128.415964 
L 231.882381 125.69827 
L 232.232298 126.69969 
L 232.582214 126.749417 
L 232.93213 128.096439 
L 233.282047 126.989042 
L 233.631963 128.302978 
L 233.981879 128.319171 
L 234.331796 127.190655 
L 234.681712 127.283966 
L 235.031628 125.72934 
L 235.381545 126.453294 
L 235.731461 125.970571 
L 236.081377 125.016248 
L 236.431294 125.029065 
L 236.78121 123.555015 
L 237.131126 122.897415 
L 237.481043 124.369857 
L 237.830959 120.387048 
L 238.180875 119.63069 
L 238.530792 119.40244 
L 238.880708 120.643772 
L 239.230624 120.440548 
L 239.580541 120.765772 
L 239.930457 120.013692 
L 240.280373 119.527539 
L 240.630289 117.595179 
L 240.980206 117.33269 
L 241.680038 116.220138 
L 242.379871 116.297098 
L 243.079704 114.211619 
L 243.42962 114.703167 
L 243.779536 115.66757 
L 244.129453 115.609781 
L 244.479369 114.351041 
L 244.829285 114.254244 
L 245.179202 112.422822 
L 245.529118 113.057068 
L 245.879034 112.79479 
L 246.228951 115.131031 
L 246.578867 115.589433 
L 246.928783 115.767813 
L 247.2787 115.144896 
L 247.628616 113.348982 
L 247.978532 113.191065 
L 248.328449 111.645209 
L 248.678365 110.873948 
L 249.028281 109.784681 
L 249.378198 110.117109 
L 249.728114 108.637215 
L 250.07803 109.56389 
L 250.427947 108.955172 
L 250.777863 109.763399 
L 251.127779 110.146718 
L 251.477695 111.453015 
L 251.827612 111.834367 
L 252.177528 111.367034 
L 252.527444 111.310496 
L 252.877361 112.505156 
L 253.227277 110.942495 
L 253.577193 110.488628 
L 254.277026 108.485149 
L 254.626942 109.012298 
L 254.976859 110.792409 
L 255.326775 111.56431 
L 255.676691 110.241557 
L 256.026608 111.148751 
L 256.376524 110.226282 
L 256.72644 110.701794 
L 257.076357 110.193188 
L 257.426273 111.854126 
L 257.776189 110.58834 
L 258.126106 110.503306 
L 258.476022 109.512327 
L 258.825938 109.202534 
L 259.175855 108.297094 
L 259.525771 108.272979 
L 259.875687 107.420863 
L 260.57552 109.709697 
L 260.925436 108.875487 
L 261.275353 108.789926 
L 261.975185 108.941958 
L 262.325101 108.326687 
L 262.675018 108.783823 
L 263.024934 108.160114 
L 263.37485 108.933032 
L 263.724767 109.20788 
L 264.424599 106.945974 
L 264.774516 107.89685 
L 265.124432 106.951275 
L 265.474348 107.845364 
L 265.824265 107.003255 
L 266.174181 108.739246 
L 266.524097 109.709108 
L 266.874014 110.083455 
L 267.22393 110.122541 
L 267.573846 108.604827 
L 267.923763 107.595437 
L 268.623595 104.62067 
L 269.323428 104.910983 
L 269.673344 103.738581 
L 270.023261 103.574848 
L 270.373177 103.604706 
L 270.723093 104.790026 
L 271.07301 104.770323 
L 271.422926 107.381754 
L 271.772842 107.704607 
L 272.122759 108.540413 
L 272.472675 107.738116 
L 273.172507 108.281358 
L 273.522424 106.837709 
L 273.87234 107.741514 
L 274.222256 107.307322 
L 274.572173 109.039671 
L 274.922089 108.827886 
L 275.272005 108.302169 
L 275.621922 107.335913 
L 275.971838 108.09228 
L 276.671671 107.219531 
L 277.021587 107.11438 
L 277.371503 106.843391 
L 278.071336 105.75112 
L 278.771169 107.650927 
L 279.471001 103.064072 
L 279.820918 104.304998 
L 280.52075 102.99969 
L 280.870667 102.13829 
L 281.220583 101.876308 
L 281.570499 102.661667 
L 281.920416 102.716481 
L 282.270332 103.074165 
L 282.620248 102.818171 
L 282.970165 102.957309 
L 283.320081 102.962334 
L 284.019913 100.50646 
L 284.36983 101.541714 
L 284.719746 101.868918 
L 285.069662 102.520763 
L 285.419579 101.19555 
L 285.769495 101.129595 
L 286.119411 99.582547 
L 286.469328 99.927291 
L 286.819244 99.777472 
L 287.16916 100.977502 
L 287.519077 99.574222 
L 287.868993 99.80606 
L 288.218909 101.14004 
L 288.568826 101.597372 
L 288.918742 103.734736 
L 289.268658 103.641812 
L 289.618575 103.407332 
L 289.968491 103.000572 
L 290.318407 101.406243 
L 290.668324 101.577447 
L 291.01824 100.660555 
L 291.368156 100.22971 
L 291.718073 100.295272 
L 292.067989 102.209694 
L 292.417905 101.155515 
L 292.767822 101.525991 
L 293.117738 101.384144 
L 293.467654 102.506787 
L 293.817571 102.104897 
L 294.517403 101.721596 
L 294.867319 101.729682 
L 295.567152 99.502349 
L 295.917068 98.664952 
L 296.266985 95.27598 
L 296.616901 95.741811 
L 296.966817 95.990558 
L 297.316734 96.863847 
L 297.66665 96.310809 
L 298.016566 96.862266 
L 298.366483 99.389375 
L 298.716399 100.456652 
L 299.066315 100.261442 
L 299.416232 99.145417 
L 299.766148 100.550164 
L 300.116064 101.027198 
L 300.465981 101.039761 
L 300.815897 101.63067 
L 301.165813 100.985045 
L 301.51573 100.856875 
L 301.865646 100.417194 
L 302.215562 101.004959 
L 302.565479 99.371859 
L 302.915395 99.24792 
L 303.265311 97.852688 
L 303.615228 98.159713 
L 303.965144 97.455502 
L 304.31506 97.998793 
L 305.014893 99.376324 
L 305.364809 99.29707 
L 305.714725 99.387611 
L 306.064642 97.751035 
L 306.764474 99.702075 
L 307.114391 97.907475 
L 307.464307 97.184782 
L 307.814223 98.909182 
L 308.16414 98.296295 
L 308.514056 97.938732 
L 308.863972 99.921036 
L 309.213889 100.159674 
L 309.563805 100.052539 
L 310.263638 98.14783 
L 310.613554 97.929386 
L 310.96347 96.789261 
L 311.313387 96.808645 
L 312.013219 98.320748 
L 312.363136 97.663151 
L 312.713052 99.462678 
L 313.062968 98.672536 
L 313.412885 99.635203 
L 313.762801 99.863709 
L 314.112717 99.243041 
L 314.462634 97.922108 
L 314.81255 99.70431 
L 315.162466 100.371711 
L 315.512382 100.199267 
L 315.862299 100.660296 
L 316.212215 99.689934 
L 316.562131 101.614141 
L 317.261964 100.592381 
L 317.61188 100.419931 
L 317.961797 99.213154 
L 318.311713 100.296434 
L 318.661629 99.083342 
L 319.011546 99.649464 
L 319.361462 98.812467 
L 319.711378 99.006633 
L 320.411211 97.190812 
L 320.761127 98.505183 
L 321.810876 98.608477 
L 322.160793 99.226494 
L 322.510709 97.28296 
L 322.860625 96.953036 
L 323.210542 95.299628 
L 323.560458 95.734895 
L 323.910374 96.654454 
L 324.260291 96.400019 
L 324.610207 96.82932 
L 324.960123 94.354343 
L 325.31004 93.988366 
L 325.659956 92.729515 
L 326.709705 92.927895 
L 327.059621 92.453176 
L 327.409537 91.4921 
L 327.759454 91.487767 
L 328.10937 92.033547 
L 328.459286 92.960185 
L 328.809203 92.911095 
L 329.509035 91.647018 
L 329.858952 91.539946 
L 330.208868 92.006251 
L 330.558784 91.737141 
L 330.908701 91.049432 
L 331.258617 90.961053 
L 331.608533 90.725732 
L 331.95845 90.749321 
L 332.308366 89.722778 
L 332.658282 90.02982 
L 333.008199 89.72234 
L 333.358115 89.208985 
L 333.708031 88.3692 
L 334.057948 86.769541 
L 334.75778 85.262465 
L 335.107697 86.58798 
L 335.457613 85.865002 
L 335.807529 83.476492 
L 336.507362 85.052169 
L 336.857278 85.1391 
L 337.207194 84.006325 
L 337.557111 83.363364 
L 337.907027 83.709459 
L 338.256943 83.620055 
L 338.956776 81.681791 
L 339.306692 79.156458 
L 339.656609 78.036899 
L 340.006525 77.562035 
L 340.356441 76.828729 
L 340.706358 77.048784 
L 341.056274 77.890771 
L 341.40619 77.595523 
L 341.756107 76.985065 
L 342.106023 78.239977 
L 342.805856 78.871336 
L 343.155772 78.483543 
L 343.505688 78.615956 
L 343.855605 78.050661 
L 344.205521 77.828464 
L 344.555437 76.654368 
L 344.905354 78.221812 
L 345.605186 74.929055 
L 345.955103 74.753954 
L 346.654935 73.258695 
L 347.004852 73.863562 
L 347.354768 73.575155 
L 347.704684 72.678995 
L 348.0546 72.246665 
L 348.404517 71.0794 
L 349.104349 70.654299 
L 349.454266 71.289913 
L 350.154098 71.855931 
L 350.504015 70.039981 
L 350.853931 69.676018 
L 351.203847 70.541457 
L 351.553764 70.020805 
L 351.90368 70.085698 
L 352.253596 72.986657 
L 352.603513 72.385909 
L 352.953429 73.798562 
L 353.303345 73.100293 
L 353.653262 73.926994 
L 354.003178 75.245536 
L 354.353094 74.630877 
L 354.703011 75.984619 
L 355.052927 76.301427 
L 355.402843 75.973944 
L 356.102676 74.380013 
L 356.452592 74.29063 
L 356.802509 74.989448 
L 357.152425 72.959047 
L 357.502341 73.433922 
L 357.852258 71.521663 
L 358.202174 71.844695 
L 358.902006 69.381889 
L 359.251923 70.293121 
L 359.601839 69.815378 
L 360.301672 68.119835 
L 360.651588 68.191647 
L 361.001504 67.766493 
L 361.351421 68.032532 
L 361.701337 69.069405 
L 362.051253 67.967737 
L 362.40117 68.39744 
L 362.751086 66.902783 
L 363.101002 66.179163 
L 363.450919 66.939592 
L 363.800835 66.973975 
L 364.150751 67.132599 
L 364.500668 67.871207 
L 364.850584 67.248065 
L 365.2005 67.597426 
L 365.550417 65.852271 
L 365.900333 64.871751 
L 366.250249 65.620127 
L 366.600166 65.513335 
L 366.950082 65.612831 
L 367.299998 67.04026 
L 368.349747 63.876477 
L 368.699664 64.204731 
L 369.04958 63.016914 
L 369.399496 63.09959 
L 369.749412 62.044397 
L 370.099329 60.11629 
L 370.449245 59.851042 
L 370.799161 61.136561 
L 371.149078 61.325821 
L 371.498994 60.562592 
L 371.84891 59.223277 
L 372.198827 60.225247 
L 372.548743 60.288895 
L 372.898659 59.930928 
L 373.248576 59.3723 
L 373.598492 58.340461 
L 373.948408 59.158301 
L 374.298325 59.453711 
L 374.648241 58.324824 
L 375.348074 57.236049 
L 375.69799 55.989486 
L 376.047906 55.759804 
L 376.397823 55.107781 
L 376.747739 55.295076 
L 377.447572 57.672197 
L 377.797488 57.472236 
L 378.147404 57.544911 
L 378.497321 58.070518 
L 378.847237 57.628011 
L 379.197153 58.388148 
L 379.896986 58.044864 
L 380.246902 58.754866 
L 380.596818 60.915083 
L 380.946735 59.340483 
L 381.296651 58.899525 
L 381.646567 61.423473 
L 381.996484 61.721603 
L 382.3464 61.204269 
L 382.696316 61.305274 
L 383.046233 60.602362 
L 383.396149 61.444299 
L 383.746065 61.144305 
L 384.095982 61.071648 
L 384.795814 61.221773 
L 385.145731 60.897303 
L 385.495647 59.843785 
L 386.19548 60.524357 
L 386.545396 60.238799 
L 386.895312 60.232429 
L 387.245229 59.722993 
L 387.595145 58.882454 
L 387.945061 57.471432 
L 388.294978 57.461367 
L 388.644894 59.601673 
L 388.99481 59.545038 
L 389.344727 59.067063 
L 389.344727 59.067063 
" style="fill:none;stroke:#1f77b4;stroke-linecap:square;stroke-width:1.5;"/>
   </g>
   <g id="line2d_5">
    <path clip-path="url(#pf727235049)" d="M 39.77832 10.518182 
L 389.344727 10.518182 
" style="fill:none;stroke:#000000;stroke-dasharray:5.55,2.4;stroke-dashoffset:0;stroke-width:1.5;"/>
   </g>
   <g id="patch_3">
    <path d="M 22.3 231.4 
L 22.3 0 
" style="fill:none;stroke:#000000;stroke-linecap:square;stroke-linejoin:miter;stroke-width:0.8;"/>
   </g>
   <g id="patch_4">
    <path d="M 22.3 231.4 
L 406.823047 231.4 
" style="fill:none;stroke:#000000;stroke-linecap:square;stroke-linejoin:miter;stroke-width:0.8;"/>
   </g>
  </g>
 </g>
 <defs>
  <clipPath id="pf727235049">
   <rect height="231.4" width="384.523047" x="22.3" y="0"/>
  </clipPath>
 </defs>
</svg>
