<?xml version="1.0" encoding="utf-8" standalone="no"?>
<!DOCTYPE svg PUBLIC "-//W3C//DTD SVG 1.1//EN"
  "http://www.w3.org/Graphics/SVG/1.1/DTD/svg11.dtd">
<!-- Created with matplotlib (https://matplotlib.org/) -->
<svg height="240.578125pt" version="1.1" viewBox="0 0 374.4 240.578125" width="374.4pt" xmlns="http://www.w3.org/2000/svg" xmlns:xlink="http://www.w3.org/1999/xlink">
 <defs>
  <style type="text/css">
*{stroke-linecap:butt;stroke-linejoin:round;}
  </style>
 </defs>
 <g id="figure_1">
  <g id="patch_1">
   <path d="M 0 240.578125 
L 374.4 240.578125 
L 374.4 0 
L 0 0 
z
" style="fill:none;"/>
  </g>
  <g id="axes_1">
   <g id="patch_2">
    <path d="M 3.5 226.9 
L 374.4 226.9 
L 374.4 0 
L 3.5 0 
z
" style="fill:none;"/>
   </g>
   <g id="matplotlib.axis_1">
    <g id="text_1">
     <!-- $x$ -->
     <defs>
      <path d="M 60.015625 54.6875 
L 34.90625 27.875 
L 50.296875 0 
L 39.984375 0 
L 28.421875 21.6875 
L 8.296875 0 
L -2.59375 0 
L 24.3125 28.8125 
L 10.015625 54.6875 
L 20.3125 54.6875 
L 30.8125 34.90625 
L 49.125 54.6875 
z
" id="DejaVuSans-Oblique-120"/>
     </defs>
     <g transform="translate(185.95 238.498437)scale(0.1 -0.1)">
      <use transform="translate(0 0.3125)" xlink:href="#DejaVuSans-Oblique-120"/>
     </g>
    </g>
   </g>
   <g id="matplotlib.axis_2"/>
   <g id="line2d_1">
    <path clip-path="url(#pc3090283b4)" d="M 20.359091 216.586364 
L 23.061951 209.389357 
L 25.764811 202.757856 
L 28.467672 196.658534 
L 31.170532 191.059813 
L 33.873392 185.93177 
L 36.576253 181.246065 
L 39.279113 176.975856 
L 41.981973 173.095727 
L 44.684833 169.581619 
L 47.387694 166.410762 
L 50.090554 163.561607 
L 52.793414 161.013772 
L 55.496274 158.747977 
L 58.199135 156.745995 
L 60.901995 154.990594 
L 63.604855 153.465487 
L 66.307715 152.15529 
L 69.686291 150.797699 
L 73.064866 149.72664 
L 76.443441 148.917354 
L 79.822017 148.346812 
L 83.200592 147.993616 
L 86.579167 147.837886 
L 90.633458 147.885775 
L 94.687748 148.162134 
L 99.417754 148.73766 
L 104.147759 149.549167 
L 109.55348 150.721332 
L 115.634915 152.297573 
L 122.392066 154.302348 
L 130.500647 156.969725 
L 140.636373 160.568678 
L 157.529249 166.857333 
L 177.124986 174.084874 
L 189.963573 178.575427 
L 201.450729 182.357568 
L 212.26217 185.687052 
L 223.073611 188.781207 
L 233.885052 191.636694 
L 244.696493 194.256327 
L 255.507934 196.647325 
L 266.319375 198.819941 
L 277.806531 200.90277 
L 289.969402 202.872374 
L 302.132274 204.619032 
L 314.97086 206.242889 
L 328.485161 207.732928 
L 343.350893 209.141811 
L 357.540909 210.289466 
L 357.540909 210.289466 
" style="fill:none;stroke:#ff7f0e;stroke-linecap:square;stroke-opacity:0.9;stroke-width:3;"/>
   </g>
   <g id="line2d_2">
    <path clip-path="url(#pc3090283b4)" d="M 20.359091 216.586364 
L 21.710521 184.842401 
L 23.061951 156.802876 
L 24.413381 132.143565 
L 25.764811 110.565469 
L 27.116242 91.792971 
L 28.467672 75.572131 
L 29.819102 61.669089 
L 31.170532 49.868588 
L 32.521962 39.972602 
L 33.873392 31.799054 
L 35.224822 25.180632 
L 36.576253 19.963683 
L 37.927683 16.007194 
L 39.279113 13.181832 
L 39.954828 12.155885 
L 40.630543 11.369069 
L 41.306258 10.808121 
L 41.981973 10.460355 
L 42.657688 10.313636 
L 43.333403 10.356363 
L 44.009118 10.577443 
L 44.684833 10.966277 
L 45.360548 11.512734 
L 46.711979 13.040251 
L 48.063409 15.087699 
L 49.414839 17.589202 
L 50.766269 20.484802 
L 52.793414 25.449285 
L 54.820559 31.015816 
L 57.52342 39.134002 
L 60.901995 50.016809 
L 76.443441 101.172296 
L 80.497732 113.252898 
L 83.876307 122.678033 
L 87.254882 131.484957 
L 90.633458 139.662664 
L 94.012033 147.215261 
L 97.390608 154.15796 
L 100.769184 160.513903 
L 104.147759 166.311648 
L 107.526334 171.583213 
L 110.90491 176.362546 
L 114.283485 180.68437 
L 117.66206 184.583301 
L 121.040636 188.093205 
L 124.419211 191.24673 
L 127.797786 194.074989 
L 131.176362 196.607352 
L 134.554937 198.871323 
L 137.933512 200.892497 
L 141.987803 203.030613 
L 146.042093 204.890445 
L 150.096384 206.505611 
L 154.826389 208.120716 
L 159.556395 209.485851 
L 164.962115 210.786781 
L 170.367836 211.85598 
L 176.449271 212.830923 
L 183.206422 213.685572 
L 190.639288 214.407171 
L 199.423584 215.036025 
L 210.235025 215.570096 
L 223.073611 215.973479 
L 239.966488 216.273203 
L 264.967945 216.471665 
L 310.240854 216.568224 
L 357.540909 216.583791 
L 357.540909 216.583791 
" style="fill:none;stroke:#2ca02c;stroke-linecap:square;stroke-opacity:0.9;stroke-width:3;"/>
   </g>
   <g id="patch_3">
    <path d="M 3.5 226.9 
L 3.5 0 
" style="fill:none;stroke:#000000;stroke-linecap:square;stroke-linejoin:miter;stroke-width:0.8;"/>
   </g>
   <g id="patch_4">
    <path d="M 3.5 226.9 
L 374.4 226.9 
" style="fill:none;stroke:#000000;stroke-linecap:square;stroke-linejoin:miter;stroke-width:0.8;"/>
   </g>
   <g id="line2d_3">
    <path clip-path="url(#pc3090283b4)" d="M 20.359091 216.586364 
L 22.386236 195.423722 
L 24.413381 176.730705 
L 26.440527 160.291165 
L 28.467672 145.905767 
L 30.494817 133.390769 
L 32.521962 122.576875 
L 34.549107 113.30818 
L 36.576253 105.44118 
L 37.927683 100.909591 
L 39.279113 96.905627 
L 40.630543 93.394824 
L 41.981973 90.344611 
L 43.333403 87.724217 
L 44.684833 85.504577 
L 46.036263 83.658246 
L 47.387694 82.159317 
L 48.739124 80.983343 
L 50.090554 80.107261 
L 51.441984 79.509323 
L 52.793414 79.169025 
L 54.144844 79.067046 
L 55.496274 79.185186 
L 56.847704 79.506306 
L 58.199135 80.014274 
L 60.22628 81.093616 
L 62.253425 82.511971 
L 64.28057 84.226102 
L 66.307715 86.196664 
L 69.010576 89.161645 
L 71.713436 92.443547 
L 75.092011 96.891217 
L 79.146302 102.59 
L 85.227737 111.556377 
L 98.066324 130.610353 
L 104.147759 139.180926 
L 109.55348 146.392791 
L 114.283485 152.344942 
L 119.013491 157.941481 
L 123.743496 163.173529 
L 128.473502 168.040626 
L 133.203507 172.548675 
L 137.933512 176.708285 
L 142.663518 180.533441 
L 147.393523 184.040435 
L 152.123529 187.247022 
L 156.853534 190.171763 
L 161.58354 192.833505 
L 166.313545 195.250989 
L 171.043551 197.442556 
L 176.449271 199.693275 
L 181.854992 201.697258 
L 187.260712 203.478217 
L 193.342148 205.242666 
L 199.423584 206.781741 
L 206.180734 208.259437 
L 213.6136 209.639611 
L 221.722181 210.895312 
L 230.506477 212.009228 
L 239.966488 212.973342 
L 250.777929 213.835374 
L 262.9408 214.567209 
L 277.130816 215.183261 
L 294.023693 215.680259 
L 314.97086 216.062271 
L 343.350893 216.338729 
L 357.540909 216.416651 
L 357.540909 216.416651 
" style="fill:none;stroke:#1f77b4;stroke-linecap:square;stroke-opacity:0.9;stroke-width:3;"/>
   </g>
   <g id="legend_1">
    <g id="patch_5">
     <path d="M 276.826562 52.034375 
L 367.4 52.034375 
Q 369.4 52.034375 369.4 50.034375 
L 369.4 7 
Q 369.4 5 367.4 5 
L 276.826562 5 
Q 274.826562 5 274.826562 7 
L 274.826562 50.034375 
Q 274.826562 52.034375 276.826562 52.034375 
z
" style="fill:#ffffff;opacity:0.8;stroke:#cccccc;stroke-linejoin:miter;"/>
    </g>
    <g id="line2d_4">
     <path d="M 278.826562 13.098438 
L 298.826562 13.098438 
" style="fill:none;stroke:#1f77b4;stroke-linecap:square;stroke-opacity:0.9;stroke-width:3;"/>
    </g>
    <g id="line2d_5"/>
    <g id="text_2">
     <!-- Original -->
     <defs>
      <path d="M 39.40625 66.21875 
Q 28.65625 66.21875 22.328125 58.203125 
Q 16.015625 50.203125 16.015625 36.375 
Q 16.015625 22.609375 22.328125 14.59375 
Q 28.65625 6.59375 39.40625 6.59375 
Q 50.140625 6.59375 56.421875 14.59375 
Q 62.703125 22.609375 62.703125 36.375 
Q 62.703125 50.203125 56.421875 58.203125 
Q 50.140625 66.21875 39.40625 66.21875 
z
M 39.40625 74.21875 
Q 54.734375 74.21875 63.90625 63.9375 
Q 73.09375 53.65625 73.09375 36.375 
Q 73.09375 19.140625 63.90625 8.859375 
Q 54.734375 -1.421875 39.40625 -1.421875 
Q 24.03125 -1.421875 14.8125 8.828125 
Q 5.609375 19.09375 5.609375 36.375 
Q 5.609375 53.65625 14.8125 63.9375 
Q 24.03125 74.21875 39.40625 74.21875 
z
" id="DejaVuSans-79"/>
      <path d="M 41.109375 46.296875 
Q 39.59375 47.171875 37.8125 47.578125 
Q 36.03125 48 33.890625 48 
Q 26.265625 48 22.1875 43.046875 
Q 18.109375 38.09375 18.109375 28.8125 
L 18.109375 0 
L 9.078125 0 
L 9.078125 54.6875 
L 18.109375 54.6875 
L 18.109375 46.1875 
Q 20.953125 51.171875 25.484375 53.578125 
Q 30.03125 56 36.53125 56 
Q 37.453125 56 38.578125 55.875 
Q 39.703125 55.765625 41.0625 55.515625 
z
" id="DejaVuSans-114"/>
      <path d="M 9.421875 54.6875 
L 18.40625 54.6875 
L 18.40625 0 
L 9.421875 0 
z
M 9.421875 75.984375 
L 18.40625 75.984375 
L 18.40625 64.59375 
L 9.421875 64.59375 
z
" id="DejaVuSans-105"/>
      <path d="M 45.40625 27.984375 
Q 45.40625 37.75 41.375 43.109375 
Q 37.359375 48.484375 30.078125 48.484375 
Q 22.859375 48.484375 18.828125 43.109375 
Q 14.796875 37.75 14.796875 27.984375 
Q 14.796875 18.265625 18.828125 12.890625 
Q 22.859375 7.515625 30.078125 7.515625 
Q 37.359375 7.515625 41.375 12.890625 
Q 45.40625 18.265625 45.40625 27.984375 
z
M 54.390625 6.78125 
Q 54.390625 -7.171875 48.1875 -13.984375 
Q 42 -20.796875 29.203125 -20.796875 
Q 24.46875 -20.796875 20.265625 -20.09375 
Q 16.0625 -19.390625 12.109375 -17.921875 
L 12.109375 -9.1875 
Q 16.0625 -11.328125 19.921875 -12.34375 
Q 23.78125 -13.375 27.78125 -13.375 
Q 36.625 -13.375 41.015625 -8.765625 
Q 45.40625 -4.15625 45.40625 5.171875 
L 45.40625 9.625 
Q 42.625 4.78125 38.28125 2.390625 
Q 33.9375 0 27.875 0 
Q 17.828125 0 11.671875 7.65625 
Q 5.515625 15.328125 5.515625 27.984375 
Q 5.515625 40.671875 11.671875 48.328125 
Q 17.828125 56 27.875 56 
Q 33.9375 56 38.28125 53.609375 
Q 42.625 51.21875 45.40625 46.390625 
L 45.40625 54.6875 
L 54.390625 54.6875 
z
" id="DejaVuSans-103"/>
      <path d="M 54.890625 33.015625 
L 54.890625 0 
L 45.90625 0 
L 45.90625 32.71875 
Q 45.90625 40.484375 42.875 44.328125 
Q 39.84375 48.1875 33.796875 48.1875 
Q 26.515625 48.1875 22.3125 43.546875 
Q 18.109375 38.921875 18.109375 30.90625 
L 18.109375 0 
L 9.078125 0 
L 9.078125 54.6875 
L 18.109375 54.6875 
L 18.109375 46.1875 
Q 21.34375 51.125 25.703125 53.5625 
Q 30.078125 56 35.796875 56 
Q 45.21875 56 50.046875 50.171875 
Q 54.890625 44.34375 54.890625 33.015625 
z
" id="DejaVuSans-110"/>
      <path d="M 34.28125 27.484375 
Q 23.390625 27.484375 19.1875 25 
Q 14.984375 22.515625 14.984375 16.5 
Q 14.984375 11.71875 18.140625 8.90625 
Q 21.296875 6.109375 26.703125 6.109375 
Q 34.1875 6.109375 38.703125 11.40625 
Q 43.21875 16.703125 43.21875 25.484375 
L 43.21875 27.484375 
z
M 52.203125 31.203125 
L 52.203125 0 
L 43.21875 0 
L 43.21875 8.296875 
Q 40.140625 3.328125 35.546875 0.953125 
Q 30.953125 -1.421875 24.3125 -1.421875 
Q 15.921875 -1.421875 10.953125 3.296875 
Q 6 8.015625 6 15.921875 
Q 6 25.140625 12.171875 29.828125 
Q 18.359375 34.515625 30.609375 34.515625 
L 43.21875 34.515625 
L 43.21875 35.40625 
Q 43.21875 41.609375 39.140625 45 
Q 35.0625 48.390625 27.6875 48.390625 
Q 23 48.390625 18.546875 47.265625 
Q 14.109375 46.140625 10.015625 43.890625 
L 10.015625 52.203125 
Q 14.9375 54.109375 19.578125 55.046875 
Q 24.21875 56 28.609375 56 
Q 40.484375 56 46.34375 49.84375 
Q 52.203125 43.703125 52.203125 31.203125 
z
" id="DejaVuSans-97"/>
      <path d="M 9.421875 75.984375 
L 18.40625 75.984375 
L 18.40625 0 
L 9.421875 0 
z
" id="DejaVuSans-108"/>
     </defs>
     <g transform="translate(306.826562 16.598438)scale(0.1 -0.1)">
      <use xlink:href="#DejaVuSans-79"/>
      <use x="78.710938" xlink:href="#DejaVuSans-114"/>
      <use x="119.824219" xlink:href="#DejaVuSans-105"/>
      <use x="147.607422" xlink:href="#DejaVuSans-103"/>
      <use x="211.083984" xlink:href="#DejaVuSans-105"/>
      <use x="238.867188" xlink:href="#DejaVuSans-110"/>
      <use x="302.246094" xlink:href="#DejaVuSans-97"/>
      <use x="363.525391" xlink:href="#DejaVuSans-108"/>
     </g>
    </g>
    <g id="line2d_6">
     <path d="M 278.826562 27.776563 
L 298.826562 27.776563 
" style="fill:none;stroke:#ff7f0e;stroke-linecap:square;stroke-opacity:0.9;stroke-width:3;"/>
    </g>
    <g id="line2d_7"/>
    <g id="text_3">
     <!-- Tilted (0.5) -->
     <defs>
      <path d="M -0.296875 72.90625 
L 61.375 72.90625 
L 61.375 64.59375 
L 35.5 64.59375 
L 35.5 0 
L 25.59375 0 
L 25.59375 64.59375 
L -0.296875 64.59375 
z
" id="DejaVuSans-84"/>
      <path d="M 18.3125 70.21875 
L 18.3125 54.6875 
L 36.8125 54.6875 
L 36.8125 47.703125 
L 18.3125 47.703125 
L 18.3125 18.015625 
Q 18.3125 11.328125 20.140625 9.421875 
Q 21.96875 7.515625 27.59375 7.515625 
L 36.8125 7.515625 
L 36.8125 0 
L 27.59375 0 
Q 17.1875 0 13.234375 3.875 
Q 9.28125 7.765625 9.28125 18.015625 
L 9.28125 47.703125 
L 2.6875 47.703125 
L 2.6875 54.6875 
L 9.28125 54.6875 
L 9.28125 70.21875 
z
" id="DejaVuSans-116"/>
      <path d="M 56.203125 29.59375 
L 56.203125 25.203125 
L 14.890625 25.203125 
Q 15.484375 15.921875 20.484375 11.0625 
Q 25.484375 6.203125 34.421875 6.203125 
Q 39.59375 6.203125 44.453125 7.46875 
Q 49.3125 8.734375 54.109375 11.28125 
L 54.109375 2.78125 
Q 49.265625 0.734375 44.1875 -0.34375 
Q 39.109375 -1.421875 33.890625 -1.421875 
Q 20.796875 -1.421875 13.15625 6.1875 
Q 5.515625 13.8125 5.515625 26.8125 
Q 5.515625 40.234375 12.765625 48.109375 
Q 20.015625 56 32.328125 56 
Q 43.359375 56 49.78125 48.890625 
Q 56.203125 41.796875 56.203125 29.59375 
z
M 47.21875 32.234375 
Q 47.125 39.59375 43.09375 43.984375 
Q 39.0625 48.390625 32.421875 48.390625 
Q 24.90625 48.390625 20.390625 44.140625 
Q 15.875 39.890625 15.1875 32.171875 
z
" id="DejaVuSans-101"/>
      <path d="M 45.40625 46.390625 
L 45.40625 75.984375 
L 54.390625 75.984375 
L 54.390625 0 
L 45.40625 0 
L 45.40625 8.203125 
Q 42.578125 3.328125 38.25 0.953125 
Q 33.9375 -1.421875 27.875 -1.421875 
Q 17.96875 -1.421875 11.734375 6.484375 
Q 5.515625 14.40625 5.515625 27.296875 
Q 5.515625 40.1875 11.734375 48.09375 
Q 17.96875 56 27.875 56 
Q 33.9375 56 38.25 53.625 
Q 42.578125 51.265625 45.40625 46.390625 
z
M 14.796875 27.296875 
Q 14.796875 17.390625 18.875 11.75 
Q 22.953125 6.109375 30.078125 6.109375 
Q 37.203125 6.109375 41.296875 11.75 
Q 45.40625 17.390625 45.40625 27.296875 
Q 45.40625 37.203125 41.296875 42.84375 
Q 37.203125 48.484375 30.078125 48.484375 
Q 22.953125 48.484375 18.875 42.84375 
Q 14.796875 37.203125 14.796875 27.296875 
z
" id="DejaVuSans-100"/>
      <path id="DejaVuSans-32"/>
      <path d="M 31 75.875 
Q 24.46875 64.65625 21.28125 53.65625 
Q 18.109375 42.671875 18.109375 31.390625 
Q 18.109375 20.125 21.3125 9.0625 
Q 24.515625 -2 31 -13.1875 
L 23.1875 -13.1875 
Q 15.875 -1.703125 12.234375 9.375 
Q 8.59375 20.453125 8.59375 31.390625 
Q 8.59375 42.28125 12.203125 53.3125 
Q 15.828125 64.359375 23.1875 75.875 
z
" id="DejaVuSans-40"/>
      <path d="M 31.78125 66.40625 
Q 24.171875 66.40625 20.328125 58.90625 
Q 16.5 51.421875 16.5 36.375 
Q 16.5 21.390625 20.328125 13.890625 
Q 24.171875 6.390625 31.78125 6.390625 
Q 39.453125 6.390625 43.28125 13.890625 
Q 47.125 21.390625 47.125 36.375 
Q 47.125 51.421875 43.28125 58.90625 
Q 39.453125 66.40625 31.78125 66.40625 
z
M 31.78125 74.21875 
Q 44.046875 74.21875 50.515625 64.515625 
Q 56.984375 54.828125 56.984375 36.375 
Q 56.984375 17.96875 50.515625 8.265625 
Q 44.046875 -1.421875 31.78125 -1.421875 
Q 19.53125 -1.421875 13.0625 8.265625 
Q 6.59375 17.96875 6.59375 36.375 
Q 6.59375 54.828125 13.0625 64.515625 
Q 19.53125 74.21875 31.78125 74.21875 
z
" id="DejaVuSans-48"/>
      <path d="M 10.6875 12.40625 
L 21 12.40625 
L 21 0 
L 10.6875 0 
z
" id="DejaVuSans-46"/>
      <path d="M 10.796875 72.90625 
L 49.515625 72.90625 
L 49.515625 64.59375 
L 19.828125 64.59375 
L 19.828125 46.734375 
Q 21.96875 47.46875 24.109375 47.828125 
Q 26.265625 48.1875 28.421875 48.1875 
Q 40.625 48.1875 47.75 41.5 
Q 54.890625 34.8125 54.890625 23.390625 
Q 54.890625 11.625 47.5625 5.09375 
Q 40.234375 -1.421875 26.90625 -1.421875 
Q 22.3125 -1.421875 17.546875 -0.640625 
Q 12.796875 0.140625 7.71875 1.703125 
L 7.71875 11.625 
Q 12.109375 9.234375 16.796875 8.0625 
Q 21.484375 6.890625 26.703125 6.890625 
Q 35.15625 6.890625 40.078125 11.328125 
Q 45.015625 15.765625 45.015625 23.390625 
Q 45.015625 31 40.078125 35.4375 
Q 35.15625 39.890625 26.703125 39.890625 
Q 22.75 39.890625 18.8125 39.015625 
Q 14.890625 38.140625 10.796875 36.28125 
z
" id="DejaVuSans-53"/>
      <path d="M 8.015625 75.875 
L 15.828125 75.875 
Q 23.140625 64.359375 26.78125 53.3125 
Q 30.421875 42.28125 30.421875 31.390625 
Q 30.421875 20.453125 26.78125 9.375 
Q 23.140625 -1.703125 15.828125 -13.1875 
L 8.015625 -13.1875 
Q 14.5 -2 17.703125 9.0625 
Q 20.90625 20.125 20.90625 31.390625 
Q 20.90625 42.671875 17.703125 53.65625 
Q 14.5 64.65625 8.015625 75.875 
z
" id="DejaVuSans-41"/>
     </defs>
     <g transform="translate(306.826562 31.276563)scale(0.1 -0.1)">
      <use xlink:href="#DejaVuSans-84"/>
      <use x="61.037109" xlink:href="#DejaVuSans-105"/>
      <use x="88.820312" xlink:href="#DejaVuSans-108"/>
      <use x="116.603516" xlink:href="#DejaVuSans-116"/>
      <use x="155.8125" xlink:href="#DejaVuSans-101"/>
      <use x="217.335938" xlink:href="#DejaVuSans-100"/>
      <use x="280.8125" xlink:href="#DejaVuSans-32"/>
      <use x="312.599609" xlink:href="#DejaVuSans-40"/>
      <use x="351.613281" xlink:href="#DejaVuSans-48"/>
      <use x="415.236328" xlink:href="#DejaVuSans-46"/>
      <use x="447.023438" xlink:href="#DejaVuSans-53"/>
      <use x="510.646484" xlink:href="#DejaVuSans-41"/>
     </g>
    </g>
    <g id="line2d_8">
     <path d="M 278.826562 42.454688 
L 298.826562 42.454688 
" style="fill:none;stroke:#2ca02c;stroke-linecap:square;stroke-opacity:0.9;stroke-width:3;"/>
    </g>
    <g id="line2d_9"/>
    <g id="text_4">
     <!-- Tilted (-0.5) -->
     <defs>
      <path d="M 4.890625 31.390625 
L 31.203125 31.390625 
L 31.203125 23.390625 
L 4.890625 23.390625 
z
" id="DejaVuSans-45"/>
     </defs>
     <g transform="translate(306.826562 45.954688)scale(0.1 -0.1)">
      <use xlink:href="#DejaVuSans-84"/>
      <use x="61.037109" xlink:href="#DejaVuSans-105"/>
      <use x="88.820312" xlink:href="#DejaVuSans-108"/>
      <use x="116.603516" xlink:href="#DejaVuSans-116"/>
      <use x="155.8125" xlink:href="#DejaVuSans-101"/>
      <use x="217.335938" xlink:href="#DejaVuSans-100"/>
      <use x="280.8125" xlink:href="#DejaVuSans-32"/>
      <use x="312.599609" xlink:href="#DejaVuSans-40"/>
      <use x="351.613281" xlink:href="#DejaVuSans-45"/>
      <use x="387.697266" xlink:href="#DejaVuSans-48"/>
      <use x="451.320312" xlink:href="#DejaVuSans-46"/>
      <use x="483.107422" xlink:href="#DejaVuSans-53"/>
      <use x="546.730469" xlink:href="#DejaVuSans-41"/>
     </g>
    </g>
   </g>
  </g>
 </g>
 <defs>
  <clipPath id="pc3090283b4">
   <rect height="226.9" width="370.9" x="3.5" y="0"/>
  </clipPath>
 </defs>
</svg>
